<svg width="217" height="50" viewBox="0 0 217 50" fill="none" xmlns="http://www.w3.org/2000/svg">
<path fill-rule="evenodd" clip-rule="evenodd" d="M3.87868 0.147329C2.37069 0.607726 1.10889 1.72925 0.432611 3.21063L0 4.15786L0.0449623 23.755L0.0897556 43.352L0.58922 44.2538C1.2261 45.4036 2.31579 46.3625 3.48126 46.7986C4.36198 47.128 4.7567 47.1409 13.9227 47.1409C22.9274 47.1409 23.4423 47.1248 23.332 46.8463C22.976 45.9477 22.7162 44.0979 22.8051 43.0961C22.9562 41.3954 23.2675 40.5715 25.4559 36.0822C29.7909 27.1888 30.6639 25.3966 32.2077 22.2182C34.0943 18.335 34.7549 17.487 36.6029 16.577C37.3288 16.2196 38.2136 15.9327 38.821 15.8577L39.8314 15.7331V9.84024V3.9472L39.4158 3.10522C38.8129 1.88384 37.6426 0.782353 36.4892 0.350753C35.5275 -0.00911099 35.4776 -0.0101212 19.9121 0.00436089C11.3254 0.0122755 4.11023 0.0766029 3.87868 0.147329ZM29.7313 11.0106C30.8816 11.4912 31.1458 13.109 30.2166 13.982L29.7847 14.3878H18.0808H6.37701L5.88563 13.8378C5.06975 12.9248 5.36023 11.491 6.45768 11.0138C7.27154 10.6598 28.8846 10.6568 29.7313 11.0106ZM28.4813 18.6998C29.2788 19.5534 29.0257 21.0666 28.0079 21.5303C27.7331 21.6555 24.2884 21.713 17.0731 21.713H6.53935L5.9668 21.1405C5.13997 20.3137 5.20666 19.2228 6.12964 18.4751C6.46155 18.2064 7.30774 18.184 17.2408 18.1804L27.9927 18.1767L28.4813 18.6998ZM38.4842 19.6653C38.1137 19.842 37.6063 20.2045 37.3568 20.471C37.0171 20.8333 33.0113 28.5612 33.0113 28.8541C33.0113 28.8825 31.6215 31.7394 29.9229 35.2028C28.2243 38.666 26.7374 41.7942 26.6185 42.1542C26.2507 43.2687 26.4873 44.9425 27.3458 47.3016C28.1776 49.5872 28.4983 49.9938 29.4748 50C30.3065 50.0052 34.0102 48.7373 34.9162 48.1373C36.0254 47.4026 36.3781 46.8521 38.3885 42.7195C39.3907 40.6594 41.1002 37.155 42.1876 34.9322C46.4655 26.1863 46.6949 25.6835 46.7798 24.8675C46.8842 23.8641 46.5071 22.8179 45.7645 22.0503C45.4454 21.7205 44.3493 21.0698 43.1151 20.4774C40.6693 19.3036 39.6264 19.1208 38.4842 19.6653ZM24.5718 25.6924C24.7875 25.8435 25.0733 26.2288 25.207 26.5487C25.5099 27.2738 25.2802 28.1116 24.6408 28.6146C24.2207 28.9452 23.9772 28.9541 15.3743 28.9541H6.53935L5.9668 28.3816C5.11387 27.5286 5.22265 26.3167 6.20693 25.7061C6.61108 25.4553 7.55596 25.4262 15.4184 25.4223C23.2504 25.4183 24.2213 25.4469 24.5718 25.6924ZM21.1562 33.2314C21.5649 33.6401 21.7287 33.9557 21.7287 34.3344C21.7287 34.9842 21.3318 35.7887 20.896 36.0217C20.6884 36.133 18.0452 36.1938 13.5305 36.1915C7.11291 36.1879 6.457 36.1618 6.12964 35.8968C5.20666 35.1491 5.13997 34.0582 5.9668 33.2314L6.53935 32.6588H13.5615H20.5836L21.1562 33.2314Z" fill="#2B2C33"/>
<path fill-rule="evenodd" clip-rule="evenodd" d="M201.085 0.106117C200.232 0.368897 199.303 1.13258 198.848 1.9443L198.411 2.72386V23.4883C198.411 46.5322 198.332 44.6509 199.349 45.8092C200.743 47.3969 203.307 47.3969 204.701 45.8092C205.718 44.6511 205.639 46.5163 205.639 23.6301C205.639 1.35567 205.68 2.53138 204.877 1.42399C204.114 0.371874 202.285 -0.263958 201.085 0.106117ZM196.143 6.34538C194.976 7.34221 192.867 8.83839 191.253 9.81524C186.974 12.4043 180.612 14.9501 176.76 15.614L176.229 15.7057V23.4992C176.229 29.6129 176.267 31.3036 176.406 31.3427C176.504 31.37 177.285 31.5587 178.142 31.7618C184.237 33.2054 191.111 36.5855 195.835 40.4627C196.445 40.9634 196.971 41.3458 197.005 41.3123C197.038 41.2789 197.049 33.2343 197.029 23.4353L196.993 5.61912L196.143 6.34538ZM210.135 11.585C208.032 12.6026 207.809 12.7458 207.618 13.2049C207.438 13.6353 207.435 13.7754 207.6 14.1691C208.095 15.3547 208.693 15.3187 211.551 13.9316C212.776 13.3371 213.876 12.7106 213.996 12.5394C214.346 12.0402 214.275 11.2564 213.841 10.8221C213.241 10.222 212.739 10.3252 210.135 11.585ZM162.56 16.1208C161.717 16.4501 160.761 17.3531 160.322 18.235C160.007 18.8678 160 18.9818 160 23.4883C160 27.8731 160.014 28.1258 160.298 28.7398C160.726 29.6648 161.397 30.368 162.248 30.7842C162.869 31.0881 163.216 31.1519 164.4 31.1798L165.811 31.213L165.848 23.5238L165.884 15.8345L164.572 15.8412C163.626 15.846 163.065 15.924 162.56 16.1208ZM167.192 23.5238L167.229 31.213H171.055H174.882L174.919 23.5238L174.956 15.8345H171.055H167.155L167.192 23.5238ZM210.352 22.3658C209.955 22.5968 209.649 23.3158 209.751 23.7783C209.801 24.0044 210.037 24.3542 210.277 24.5557L210.712 24.9221L213.468 24.8785L216.224 24.8348L216.566 24.4371C217.082 23.8363 216.982 22.8776 216.353 22.3944C216.067 22.1753 210.723 22.1498 210.352 22.3658ZM208.006 32.3446C207.647 32.6471 207.553 32.835 207.553 33.2492C207.553 33.5368 207.658 33.923 207.788 34.1074C207.926 34.3055 208.926 34.8797 210.233 35.5114C212.774 36.7407 213.32 36.8435 213.875 36.1982C214.312 35.6902 214.333 34.8668 213.921 34.4245C213.544 34.0195 209.623 32.1299 208.963 32.0351C208.56 31.9772 208.37 32.0387 208.006 32.3446ZM167.158 36.7478C167.158 41.3462 167.195 41.5772 167.987 41.9055C168.267 42.0216 169.037 42.063 170.329 42.0316C172.038 41.9902 172.285 41.9528 172.54 41.6973C172.749 41.4885 173.119 40.2446 173.889 37.1617C174.473 34.8253 174.951 32.8342 174.952 32.7367C174.953 32.5992 174.08 32.5595 171.055 32.5595H167.158V36.7478Z" fill="#2B2C33"/>
<path fill-rule="evenodd" clip-rule="evenodd" d="M81.6662 0.210342C79.7654 0.449877 77.1779 1.10633 75.5311 1.76722L74.1814 2.30844L74.1298 21.1944L74.0782 40.0803L76.0516 39.4237C79.2035 38.3751 81.5181 38.0516 85.9143 38.0458C90.8654 38.0389 94.5647 38.5265 99.5365 39.8412C100.576 40.1158 101.509 40.3406 101.611 40.3406C101.722 40.3406 101.776 32.7863 101.745 21.4359L101.693 2.53143L99.9736 2.05942C93.6825 0.332834 86.473 -0.395256 81.6662 0.210342ZM116.764 0.105406C112.442 0.627459 108.335 1.41548 105.697 2.22833L104.424 2.62042V21.4805C104.424 32.689 104.499 40.3406 104.608 40.3406C104.71 40.3406 105.643 40.117 106.682 39.8438C115.578 37.5038 123.941 37.3544 130.167 39.4243L132.14 40.0803L132.089 21.191L132.037 2.30158L130.386 1.65361C127.602 0.560665 125.238 0.161104 121.113 0.0860348C119.11 0.049711 117.153 0.0583869 116.764 0.105406ZM67 28.1318V47H103.109H139.218V28.1318V9.26364H136.993H134.768V26.0129C134.768 42.4932 134.761 42.7687 134.363 43.1658C133.829 43.6992 133.556 43.6772 132.183 42.9903C130.562 42.1792 128.306 41.4396 126.17 41.0187C123.94 40.5792 116.963 40.5237 114.438 40.9253C111.14 41.4497 107.853 42.1669 105.536 42.8674L103.154 43.5878L101.513 43.0845C95.0535 41.1034 87.6852 40.1903 82.4545 40.7226C79.1923 41.0548 76.0633 41.9449 73.5745 43.249C72.786 43.662 72.6217 43.652 71.9835 43.1511L71.4504 42.733V25.9982V9.26364H69.2252H67V28.1318ZM96.7369 10.2726C97.4798 11.0136 97.1249 12.1373 96.0653 12.399C95.8228 12.4589 91.6798 12.4817 86.8588 12.4496C78.4511 12.3939 78.0816 12.3756 77.8062 11.9998C77.4221 11.4756 77.4433 10.6908 77.854 10.2381C78.1687 9.89103 78.7289 9.86903 87.2606 9.86903C96.0627 9.86903 96.3443 9.88094 96.7369 10.2726ZM127.772 10.2537C128.286 10.8203 128.128 11.91 127.485 12.2325C127.103 12.4246 124.857 12.4872 118.258 12.4894C109.738 12.4924 109.524 12.4827 109.003 12.0741C108.362 11.5716 108.31 10.8359 108.874 10.2726C109.267 9.88094 109.549 9.86903 118.351 9.86903C127.017 9.86903 127.438 9.88619 127.772 10.2537ZM96.7369 15.7212C97.2109 16.194 97.2589 16.8965 96.8545 17.4484C96.5789 17.8245 96.2077 17.8423 87.5229 17.8966C77.3855 17.96 77.5192 17.9769 77.5192 16.6362C77.5192 15.2968 77.364 15.3176 87.3755 15.3176C96.0627 15.3176 96.3445 15.3297 96.7369 15.7212ZM127.643 15.6318C127.957 15.8512 128.092 16.1518 128.092 16.6293C128.092 17.9583 128.22 17.941 118.425 17.941C109.702 17.941 109.053 17.8956 108.625 17.2549C108.35 16.8446 108.467 16.128 108.874 15.7212C109.267 15.3297 109.549 15.3176 118.236 15.3176C126.015 15.3176 127.252 15.359 127.643 15.6318ZM96.3963 20.9982C97.2536 21.4484 97.4033 22.3212 96.7369 22.986C96.3445 23.3774 96.0627 23.3895 87.3755 23.3895C77.2694 23.3895 77.4409 23.4136 77.5586 22.0129C77.6046 21.468 77.75 21.2148 78.1261 21.0261C78.8189 20.6782 95.7376 20.6523 96.3963 20.9982ZM127.485 21.0261C127.861 21.2148 128.007 21.468 128.053 22.0129C128.171 23.4136 128.342 23.3895 118.236 23.3895C109.549 23.3895 109.267 23.3774 108.874 22.986C108.222 22.3354 108.355 21.4731 109.178 21.0073C109.785 20.6637 126.798 20.681 127.485 21.0261ZM96.7715 26.7505C97.257 27.1888 97.2419 27.9308 96.7369 28.4345C96.3445 28.826 96.0627 28.8381 87.2958 28.8381C79.1709 28.8381 78.2218 28.8044 77.8892 28.5041C77.4692 28.125 77.3934 27.0264 77.7619 26.6587C77.9436 26.4775 80.3185 26.4165 87.2031 26.4165C95.4785 26.4165 96.4388 26.45 96.7715 26.7505ZM127.849 26.6587C128.2 27.0084 128.148 28.039 127.757 28.469C127.443 28.8161 126.883 28.8381 118.351 28.8381C109.549 28.8381 109.267 28.8262 108.874 28.4345C108.382 27.9437 108.355 27.2818 108.805 26.7856C109.12 26.4383 109.685 26.4165 118.373 26.4165C125.285 26.4165 127.668 26.4775 127.849 26.6587Z" fill="#2B2C33"/>
</svg>
