<svg width="200" height="50" viewBox="0 0 200 50" fill="none" xmlns="http://www.w3.org/2000/svg">
<path fill-rule="evenodd" clip-rule="evenodd" d="M115.975 0.197153C111.704 1.17818 108.182 3.90961 106.272 7.72217C105.987 8.29116 105.753 8.85235 105.753 8.96924C105.753 9.13286 106.206 9.1701 107.713 9.13119C115.253 8.93565 121.74 14.0029 123.571 21.5185C123.843 22.6355 123.928 23.5055 123.93 25.186C123.931 26.3979 123.964 27.3892 124.003 27.3892C124.308 27.3892 127.16 25.7198 127.992 25.0538C130.109 23.3593 131.914 20.5494 132.632 17.8283C133.056 16.2242 133.062 12.1443 132.644 10.6154C131.238 5.48026 127.752 1.84795 122.88 0.44424C121.279 -0.017011 117.496 -0.15236 115.975 0.197153ZM106.418 10.9348C102.325 11.4039 98.398 13.819 96.198 17.2199C95.5592 18.2076 94.779 19.7411 94.779 20.0097C94.779 20.0511 95.4338 20.0363 96.2339 19.9766C99.5578 19.7292 103.391 20.8688 106.335 22.9802C107.501 23.8161 109.618 25.9674 110.386 27.0967C111.204 28.3004 112.194 30.4828 112.593 31.9618C112.879 33.0211 112.956 33.793 112.969 35.7521L112.986 38.212L113.402 38.1117C114.061 37.9526 116.119 36.7263 117.214 35.8404C120.694 33.0241 122.6 28.1742 122.039 23.5603C121.591 19.8745 120.146 16.9663 117.547 14.522C114.751 11.8911 110.377 10.4814 106.418 10.9348ZM95.6104 21.8317C91.1695 22.6204 88.3468 24.2067 85.8771 27.3021C84.9714 28.4374 83.7732 30.827 83.3743 32.2943C83.0035 33.6577 82.8768 36.9528 83.138 38.4336C83.6511 41.3421 84.9872 43.9039 87.0467 45.929C89.8248 48.6606 93.1898 50.0065 97.2246 50C102.861 49.9908 107.33 47.1919 109.829 42.1047C112.401 36.8694 111.429 30.668 107.349 26.277C104.696 23.4225 101.566 21.9667 97.7737 21.8239C96.8124 21.7877 95.839 21.7912 95.6104 21.8317Z" fill="#2B2C33"/>
<path fill-rule="evenodd" clip-rule="evenodd" d="M156.879 0.147329C155.371 0.607726 154.109 1.72925 153.433 3.21063L153 4.15786L153.045 23.755L153.09 43.352L153.589 44.2538C154.226 45.4036 155.316 46.3625 156.481 46.7986C157.362 47.128 157.757 47.1409 166.923 47.1409C175.927 47.1409 176.442 47.1248 176.332 46.8463C175.976 45.9477 175.716 44.0979 175.805 43.0961C175.956 41.3954 176.268 40.5715 178.456 36.0822C182.791 27.1888 183.664 25.3966 185.208 22.2182C187.094 18.335 187.755 17.487 189.603 16.577C190.329 16.2196 191.214 15.9327 191.821 15.8577L192.831 15.7331V9.84024V3.9472L192.416 3.10522C191.813 1.88384 190.643 0.782353 189.489 0.350753C188.527 -0.00911099 188.478 -0.0101212 172.912 0.00436089C164.325 0.0122755 157.11 0.0766029 156.879 0.147329ZM182.731 11.0106C183.882 11.4912 184.146 13.109 183.217 13.982L182.785 14.3878H171.081H159.377L158.886 13.8378C158.07 12.9248 158.36 11.491 159.458 11.0138C160.272 10.6598 181.885 10.6568 182.731 11.0106ZM181.481 18.6998C182.279 19.5534 182.026 21.0666 181.008 21.5303C180.733 21.6555 177.288 21.713 170.073 21.713H159.539L158.967 21.1405C158.14 20.3137 158.207 19.2228 159.13 18.4751C159.462 18.2064 160.308 18.184 170.241 18.1804L180.993 18.1767L181.481 18.6998ZM191.484 19.6653C191.114 19.842 190.606 20.2045 190.357 20.471C190.017 20.8333 186.011 28.5612 186.011 28.8541C186.011 28.8825 184.622 31.7394 182.923 35.2028C181.224 38.666 179.737 41.7942 179.618 42.1542C179.251 43.2687 179.487 44.9425 180.346 47.3016C181.178 49.5872 181.498 49.9938 182.475 50C183.307 50.0052 187.01 48.7373 187.916 48.1373C189.025 47.4026 189.378 46.8521 191.389 42.7195C192.391 40.6594 194.1 37.155 195.188 34.9322C199.466 26.1863 199.695 25.6835 199.78 24.8675C199.884 23.8641 199.507 22.8179 198.764 22.0503C198.445 21.7205 197.349 21.0698 196.115 20.4774C193.669 19.3036 192.626 19.1208 191.484 19.6653ZM177.572 25.6924C177.787 25.8435 178.073 26.2288 178.207 26.5487C178.51 27.2738 178.28 28.1116 177.641 28.6146C177.221 28.9452 176.977 28.9541 168.374 28.9541H159.539L158.967 28.3816C158.114 27.5286 158.223 26.3167 159.207 25.7061C159.611 25.4553 160.556 25.4262 168.418 25.4223C176.25 25.4183 177.221 25.4469 177.572 25.6924ZM174.156 33.2314C174.565 33.6401 174.729 33.9557 174.729 34.3344C174.729 34.9842 174.332 35.7887 173.896 36.0217C173.688 36.133 171.045 36.1938 166.531 36.1915C160.113 36.1879 159.457 36.1618 159.13 35.8968C158.207 35.1491 158.14 34.0582 158.967 33.2314L159.539 32.6588H166.561H173.584L174.156 33.2314Z" fill="#2B2C33"/>
<path fill-rule="evenodd" clip-rule="evenodd" d="M21.7972 0.363113C21.4702 0.562515 21.1063 0.974832 20.9884 1.27944C20.7089 2.00099 19.7858 5.67613 19.7858 6.06702C19.7858 6.33804 20.9643 6.36931 31.1425 6.36931C37.3888 6.36931 42.5466 6.32202 42.6043 6.26411C42.7611 6.10756 41.4859 1.1974 41.1987 0.851292C40.5059 0.0166206 40.3011 -0.000752271 31.1361 1.98576e-05C22.9216 0.000598954 22.3556 0.022604 21.7972 0.363113ZM4.96537 8.5029C3.83806 8.72739 2.31619 9.58677 1.59869 10.4039C1.2717 10.7762 0.778306 11.5626 0.502077 12.1514L0 13.222V29.0506C0 44.1324 0.0173729 44.9292 0.368691 45.939C0.876752 47.3991 2.48954 49.0067 4.02125 49.5798L5.14431 50L31.527 49.949L57.9097 49.8981L58.8239 49.4437C60.0944 48.8125 61.2333 47.6458 61.8377 46.3569L62.3494 45.2653V29.1471V13.0289L61.8089 11.9281C61.1648 10.6164 59.789 9.32019 58.47 8.78221C57.5412 8.40329 57.0449 8.39557 31.6573 8.36739C17.4308 8.35156 5.41938 8.41256 4.96537 8.5029ZM35.6915 15.3252C40.6366 17.0092 44.2673 21.0257 45.4807 26.1551C45.8733 27.814 45.7832 31.1504 45.2996 32.8709C42.8871 41.4531 33.7393 46.0048 25.6617 42.6422C21.8184 41.0421 18.7166 37.6975 17.3534 33.6834C16.6523 31.6193 16.4925 28.3593 16.9826 26.124C17.9273 21.8159 20.7957 18.1389 24.7427 16.1771C27.1641 14.9735 28.6662 14.6612 31.6573 14.74C33.7623 14.7954 34.4124 14.8898 35.6915 15.3252ZM11.609 17.0749C12.6401 17.7972 12.6652 19.5042 11.657 20.3526C10.9866 20.9168 10.1927 20.9867 9.3582 20.5553C8.63916 20.1833 8.3969 19.7213 8.3969 18.7212C8.3969 17.577 9.1974 16.7931 10.366 16.7931C10.8281 16.7931 11.3875 16.9199 11.609 17.0749ZM29.0513 19.0259C27.0606 19.4569 25.4629 20.3495 23.92 21.8924C21.5314 24.2812 20.4469 27.4058 20.9079 30.5725C21.9547 37.7646 29.6725 41.7274 36.0814 38.3636C37.6359 37.5475 39.6515 35.5353 40.4005 34.0517C41.7421 31.3938 41.9546 28.2935 40.9763 25.6444C39.6992 22.1852 36.468 19.4934 32.912 18.9264C31.3127 18.6714 30.6037 18.6896 29.0513 19.0259ZM33.1668 21.1353C34.6887 21.5318 35.6971 22.079 36.7921 23.1035C38.5306 24.7298 39.4751 26.7744 39.4751 28.912C39.4751 29.844 39.4037 30.0293 38.8188 30.6142C37.9167 31.5162 36.9886 31.526 36.1092 30.6431C35.6214 30.1536 35.4585 29.7961 35.367 29.0155C35.0832 26.5946 33.8455 25.4202 31.132 24.9971C29.0919 24.6788 28.4184 22.2346 30.0901 21.2154C30.816 20.7726 31.6874 20.75 33.1668 21.1353Z" fill="#2B2C33"/>
</svg>
