<svg width="169" height="50" viewBox="0 0 169 50" fill="none" xmlns="http://www.w3.org/2000/svg">
<path fill-rule="evenodd" clip-rule="evenodd" d="M21.7972 0.363113C21.4702 0.562515 21.1063 0.974832 20.9884 1.27944C20.7089 2.00099 19.7858 5.67613 19.7858 6.06702C19.7858 6.33804 20.9643 6.36931 31.1425 6.36931C37.3888 6.36931 42.5466 6.32202 42.6043 6.26411C42.7611 6.10756 41.4859 1.1974 41.1987 0.851292C40.5059 0.0166206 40.3011 -0.000752271 31.1361 1.98576e-05C22.9216 0.000598954 22.3556 0.022604 21.7972 0.363113ZM4.96537 8.5029C3.83806 8.72739 2.31619 9.58677 1.59869 10.4039C1.2717 10.7762 0.778306 11.5626 0.502077 12.1514L0 13.222V29.0506C0 44.1324 0.0173729 44.9292 0.368691 45.939C0.876752 47.3991 2.48954 49.0067 4.02125 49.5798L5.14431 50L31.527 49.949L57.9097 49.8981L58.8239 49.4437C60.0944 48.8125 61.2333 47.6458 61.8377 46.3569L62.3494 45.2653V29.1471V13.0289L61.8089 11.9281C61.1648 10.6164 59.789 9.32019 58.47 8.78221C57.5412 8.40329 57.0449 8.39557 31.6573 8.36739C17.4308 8.35156 5.41938 8.41256 4.96537 8.5029ZM35.6915 15.3252C40.6366 17.0092 44.2673 21.0257 45.4807 26.1551C45.8733 27.814 45.7832 31.1504 45.2996 32.8709C42.8871 41.4531 33.7393 46.0048 25.6617 42.6422C21.8184 41.0421 18.7166 37.6975 17.3534 33.6834C16.6523 31.6193 16.4925 28.3593 16.9826 26.124C17.9273 21.8159 20.7957 18.1389 24.7427 16.1771C27.1641 14.9735 28.6662 14.6612 31.6573 14.74C33.7623 14.7954 34.4124 14.8898 35.6915 15.3252ZM11.609 17.0749C12.6401 17.7972 12.6652 19.5042 11.657 20.3526C10.9866 20.9168 10.1927 20.9867 9.3582 20.5553C8.63916 20.1833 8.3969 19.7213 8.3969 18.7212C8.3969 17.577 9.1974 16.7931 10.366 16.7931C10.8281 16.7931 11.3875 16.9199 11.609 17.0749ZM29.0513 19.0259C27.0606 19.4569 25.4629 20.3495 23.92 21.8924C21.5314 24.2812 20.4469 27.4058 20.9079 30.5725C21.9547 37.7646 29.6725 41.7274 36.0814 38.3636C37.6359 37.5475 39.6515 35.5353 40.4005 34.0517C41.7421 31.3938 41.9546 28.2935 40.9763 25.6444C39.6992 22.1852 36.468 19.4934 32.912 18.9264C31.3127 18.6714 30.6037 18.6896 29.0513 19.0259ZM33.1668 21.1353C34.6887 21.5318 35.6971 22.079 36.7921 23.1035C38.5306 24.7298 39.4751 26.7744 39.4751 28.912C39.4751 29.844 39.4037 30.0293 38.8188 30.6142C37.9167 31.5162 36.9886 31.526 36.1092 30.6431C35.6214 30.1536 35.4585 29.7961 35.367 29.0155C35.0832 26.5946 33.8455 25.4202 31.132 24.9971C29.0919 24.6788 28.4184 22.2346 30.0901 21.2154C30.816 20.7726 31.6874 20.75 33.1668 21.1353Z" fill="#2B2C33"/>
<path fill-rule="evenodd" clip-rule="evenodd" d="M97.8032 0.0642339C89.3681 1.04821 83 8.13862 83 16.5466C83 19.6112 83.9695 22.5809 86.1609 26.2286C87.221 27.9932 87.8728 29.5051 88.391 31.4018C89.4118 35.1375 89.8276 35.9874 91.3938 37.5389C93.0539 39.1838 95.1726 40.045 97.559 40.045H98.8265L98.8217 32.6434C98.818 27.089 98.7755 25.172 98.6512 24.9623C98.56 24.8087 97.1961 22.9786 95.6203 20.8955C91.868 15.9352 91.9644 16.0753 92.0554 15.7128C92.1625 15.2859 94.4986 13.0308 94.8337 13.0308C94.9834 13.0308 95.5729 13.3992 96.1439 13.8494C96.7149 14.2996 97.243 14.668 97.3175 14.668C97.392 14.668 97.7638 14.392 98.1436 14.0547C99.0973 13.2076 99.4529 12.9946 99.7539 13.0903C99.896 13.1353 100.401 13.5089 100.876 13.9201C101.351 14.3314 101.806 14.668 101.888 14.668C101.97 14.668 102.404 14.3711 102.853 14.0082C103.724 13.3045 104.166 13.0308 104.43 13.0308C104.733 13.0308 107.149 15.5184 107.149 15.8302C107.149 16.135 107.038 16.2912 102.949 21.7209L100.464 25.0218V32.5334V40.045H101.649C103.151 40.045 104.335 39.7533 105.716 39.0426C107.08 38.3413 108.664 36.8225 109.368 35.5426C109.842 34.6806 109.994 34.2294 110.767 31.3897C111.249 29.6204 111.873 28.1596 112.836 26.5481C115.248 22.5114 116.154 19.7726 116.154 16.5158C116.154 13.8293 115.574 11.426 114.347 9.02749C112.029 4.49784 107.798 1.30129 102.783 0.29099C101.49 0.0303981 99.0467 -0.0807969 97.8032 0.0642339ZM94.388 15.4913C94.0691 15.8239 94.0204 15.951 94.1393 16.1393C94.2204 16.2681 95.3781 17.8163 96.7118 19.5797C98.0454 21.3431 99.2043 22.8933 99.2872 23.0247C99.3701 23.1561 99.4998 23.2608 99.5757 23.2576C99.7348 23.2507 105.103 16.1497 105.103 15.946C105.103 15.8049 104.396 15.0773 104.259 15.0773C104.216 15.0773 103.7 15.4457 103.113 15.8959C102.526 16.3462 101.937 16.7145 101.804 16.7145C101.671 16.7145 101.123 16.3362 100.586 15.874C99.9091 15.2918 99.5566 15.0716 99.4387 15.1577C99.3451 15.226 98.8841 15.6087 98.4145 16.0082C97.3841 16.8844 97.2755 16.8762 95.9533 15.8213C95.4405 15.4121 94.9677 15.0773 94.9026 15.0773C94.8377 15.0773 94.606 15.2635 94.388 15.4913ZM91.9365 42.0726C91.2273 42.5105 91.0078 42.8625 90.941 43.6693C90.8857 44.3356 90.9388 44.5465 91.3927 45.4649C92.1368 46.9706 93.3534 48.1458 95.0193 48.9681C96.5624 49.7297 97.756 50 99.5769 50C102.527 50 104.944 49.0099 106.709 47.0789C108.537 45.079 108.791 42.877 107.288 42.0728C106.841 41.8341 106.375 41.8186 99.5791 41.8192C92.7757 41.8196 92.3215 41.8347 91.9365 42.0726Z" fill="#2B2C33"/>
<path fill-rule="evenodd" clip-rule="evenodd" d="M137.419 0.0815409C137.374 0.126285 137.337 5.09869 137.337 11.1311V22.0992L138.287 22.2343C138.809 22.3086 139.554 22.4049 139.941 22.4486L140.646 22.5277V19.5769V16.626H152.778H164.91V19.5774V22.5289L165.615 22.4548C166.003 22.414 166.747 22.317 167.269 22.2392L168.219 22.0976V11.0487V0H152.86C144.412 0 137.463 0.0366751 137.419 0.0815409ZM137.337 27.6231V30.9182L137.735 30.9826C143.358 31.8908 150.437 32.2961 156.423 32.0524C160.608 31.882 165.72 31.4021 167.882 30.9763L168.219 30.9099V27.6189C168.219 25.8087 168.204 24.3278 168.185 24.3278C168.167 24.3278 167.376 24.4366 166.43 24.5697C161.818 25.2177 158.028 25.4683 152.839 25.4686C147.532 25.469 143.091 25.1669 138.702 24.5069C138.052 24.4092 137.479 24.3289 137.429 24.3285C137.378 24.3282 137.337 25.8107 137.337 27.6231ZM138.44 33.4199C138.44 33.445 140.893 34.8616 143.891 36.5679C146.89 38.2741 149.344 39.7048 149.345 39.7471C149.346 39.8074 146.124 41.6954 144.874 42.3666C143.04 43.3511 136.602 47.1178 136.602 47.2058C136.602 47.3574 137.921 49.651 138.112 49.8307C138.219 49.932 140.016 48.962 145.18 46.0146C148.988 43.841 152.269 41.9744 152.472 41.8666L152.839 41.6706L159.518 45.4784C163.192 47.5727 166.48 49.4468 166.825 49.6432L167.452 50L168.282 48.5689C168.939 47.4379 169.077 47.1165 168.942 47.0355C168.731 46.9094 159.631 41.7278 157.653 40.6079C156.566 39.9923 156.253 39.7615 156.366 39.6591C156.448 39.5846 157.95 38.7099 159.702 37.7153C161.455 36.7208 163.868 35.351 165.064 34.6713C166.555 33.8247 167.16 33.4227 166.986 33.3952C166.846 33.3731 165.866 33.4664 164.81 33.6024C163.753 33.7386 162.089 33.9147 161.111 33.9939L159.334 34.1378L156.133 35.9566C154.373 36.9569 152.876 37.7753 152.807 37.7753C152.739 37.7753 151.25 36.9578 149.499 35.9588L146.316 34.1422L144.492 33.9927C143.489 33.9104 141.841 33.738 140.83 33.6095C139.003 33.3773 138.44 33.3326 138.44 33.4199Z" fill="#2B2C33"/>
</svg>
