<svg width="197" height="50" viewBox="0 0 197 50" fill="none" xmlns="http://www.w3.org/2000/svg">
<path fill-rule="evenodd" clip-rule="evenodd" d="M32.9746 0.197153C28.7043 1.17818 25.1824 3.90961 23.2717 7.72217C22.9866 8.29116 22.7531 8.85235 22.7529 8.96924C22.7528 9.13286 23.2056 9.1701 24.7127 9.13119C32.2532 8.93565 38.7401 14.0029 40.5708 21.5185C40.8428 22.6355 40.928 23.5055 40.9298 25.186C40.9311 26.3979 40.9641 27.3892 41.0031 27.3892C41.3084 27.3892 44.1601 25.7198 44.9921 25.0538C47.1095 23.3593 48.9139 20.5494 49.6322 17.8283C50.0557 16.2242 50.0622 12.1443 49.6437 10.6154C48.2383 5.48026 44.7515 1.84795 39.8798 0.44424C38.2792 -0.017011 34.4959 -0.15236 32.9746 0.197153ZM23.4184 10.9348C19.3255 11.4039 15.398 13.819 13.198 17.2199C12.5592 18.2076 11.779 19.7411 11.779 20.0097C11.779 20.0511 12.4338 20.0363 13.2339 19.9766C16.5578 19.7292 20.3908 20.8688 23.3352 22.9802C24.501 23.8161 26.6177 25.9674 27.3857 27.0967C28.2042 28.3004 29.1945 30.4828 29.5934 31.9618C29.8792 33.0211 29.9557 33.793 29.9693 35.7521L29.9863 38.212L30.402 38.1117C31.0608 37.9526 33.1186 36.7263 34.2136 35.8404C37.6942 33.0241 39.5999 28.1742 39.0389 23.5603C38.5908 19.8745 37.1455 16.9663 34.5471 14.522C31.7505 11.8911 27.3769 10.4814 23.4184 10.9348ZM12.6104 21.8317C8.1695 22.6204 5.34678 24.2067 2.87708 27.3021C1.97137 28.4374 0.773181 30.827 0.374284 32.2943C0.00348696 33.6577 -0.123216 36.9528 0.138005 38.4336C0.651134 41.3421 1.98717 43.9039 4.04667 45.929C6.82482 48.6606 10.1898 50.0065 14.2246 50C19.8614 49.9908 24.3297 47.1919 26.8287 42.1047C29.4005 36.8694 28.4288 30.668 24.3487 26.277C21.6964 23.4225 18.5663 21.9667 14.7737 21.8239C13.8124 21.7877 12.839 21.7912 12.6104 21.8317Z" fill="#2B2C33"/>
<path fill-rule="evenodd" clip-rule="evenodd" d="M163.304 0.0720703C155.498 0.672067 147.94 5.21337 143.78 11.8042C136.574 23.2198 139.98 38.5233 151.367 45.8907C157.688 49.981 165.97 51.1191 172.882 48.8473C175.822 47.8812 178.145 46.4737 179.963 44.5578C182.287 42.1086 183.25 39.6008 183.125 36.3246C183.02 33.5758 182.449 32.4911 179.529 29.4878C176.733 26.612 176.211 25.626 176.704 24.1484C176.999 23.2595 177.79 22.2735 179.692 20.4215C182.208 17.9711 183.013 16.4089 183.121 13.769C183.191 12.05 183 10.7439 182.472 9.33913C181.315 6.26105 178.38 3.44025 174.68 1.84866C171.355 0.418941 167.212 -0.228274 163.304 0.0720703ZM190.932 0.277977C190.329 0.548135 189.984 0.855956 189.726 1.35431C189.071 2.61842 188.168 17.7043 188.491 21.9793L188.594 23.3294H191.693H194.792L194.888 22.8948C195.063 22.0997 194.976 14.7239 194.751 11.2824C194.306 4.4648 193.977 1.57476 193.588 1.04414C192.953 0.179663 191.856 -0.136606 190.932 0.277977ZM160.028 8.79632C161.142 9.21242 162.317 10.3745 162.75 11.4901C163.959 14.6051 161.885 17.9867 158.577 18.2948C154.112 18.7106 151.476 13.3819 154.497 10.0466C155.903 8.49376 157.967 8.02725 160.028 8.79632ZM173.174 8.73581C174.52 9.25867 175.571 10.3203 176.083 11.6764C176.5 12.7792 176.419 14.5132 175.904 15.5058C175.331 16.6101 174.627 17.3188 173.608 17.8194C172.763 18.2345 172.568 18.2748 171.428 18.2705C170.348 18.2666 170.066 18.2131 169.382 17.882C168.34 17.3775 167.4 16.4485 166.939 15.467C166.617 14.7822 166.566 14.497 166.566 13.3595C166.566 12.2012 166.612 11.9504 166.952 11.2597C167.61 9.92458 168.903 8.87968 170.348 8.51633C171.053 8.33936 172.428 8.44626 173.174 8.73581ZM157.532 11.832C157.024 12.0371 156.503 12.7846 156.503 13.3077C156.503 14.3136 157.214 15.0212 158.226 15.0212C158.871 15.0212 159.631 14.3703 159.754 13.712C159.991 12.4558 158.698 11.3618 157.532 11.832ZM170.724 11.8925C170.156 12.1393 169.828 12.676 169.828 13.3595C169.828 14.63 171.065 15.3928 172.187 14.8143C172.762 14.5173 173.021 14.0766 173.021 13.393C173.021 12.6641 172.697 12.1379 172.095 11.8867C171.538 11.6546 171.269 11.6559 170.724 11.8925ZM153.514 20.3324C155.624 21.296 156.865 23.6951 156.364 25.8419C155.99 27.4451 154.966 28.7043 153.473 29.397C152.816 29.7016 152.489 29.7624 151.505 29.7624C150.522 29.7624 150.195 29.7016 149.538 29.397C148.437 28.8866 147.565 28.0352 147.029 26.9496C146.626 26.1325 146.578 25.9101 146.581 24.8555C146.583 23.8782 146.646 23.542 146.947 22.8974C148.138 20.3423 151.047 19.2059 153.514 20.3324ZM150.881 23.316C150.391 23.5308 149.958 24.1182 149.886 24.666C149.806 25.2758 150.226 26.0339 150.816 26.3446C151.356 26.6292 152.176 26.4629 152.672 25.968C153.037 25.6042 153.102 25.436 153.102 24.8526C153.102 24.2692 153.037 24.101 152.672 23.7372C152.214 23.28 151.4 23.0886 150.881 23.316ZM188.895 27.0335C188.935 27.2429 189.043 28.0495 189.136 28.8259L189.305 30.2375L189.734 30.1414C190.294 30.0162 193.092 30.0172 193.654 30.1426L194.09 30.2401L194.236 29.1733C194.317 28.5868 194.423 27.7795 194.473 27.3797L194.563 26.6527H191.693H188.823L188.895 27.0335ZM160.307 31.8978C162.069 32.7632 163.072 34.377 163.072 36.3457C163.072 37.8119 162.673 38.7758 161.639 39.8075C160.428 41.0149 158.84 41.5154 157.248 41.1915C155.617 40.8598 154.329 39.8394 153.61 38.3086C153.292 37.6317 153.242 37.3501 153.251 36.2765C153.259 35.3312 153.331 34.8799 153.547 34.4071C154.753 31.7702 157.768 30.651 160.307 31.8978ZM173.445 31.8057C174.508 32.2997 175.253 32.9976 175.807 34.0158C176.259 34.8473 176.283 34.962 176.283 36.2765C176.283 37.4854 176.236 37.7606 175.915 38.4443C175.44 39.4562 174.568 40.2956 173.437 40.8307C172.656 41.2004 172.386 41.2568 171.419 41.2516C170.473 41.2465 170.167 41.1816 169.407 40.825C168.315 40.3132 167.467 39.491 166.952 38.4455C166.612 37.7548 166.566 37.5041 166.566 36.3457C166.566 35.2094 166.617 34.9228 166.937 34.2415C167.568 32.899 168.824 31.8726 170.314 31.4821C171.112 31.2728 172.638 31.4306 173.445 31.8057ZM190.826 33.3068C189.322 33.603 187.943 34.6425 187.255 35.9998C186.482 37.5246 186.618 39.4875 187.731 42.8539C188.369 44.7809 189.848 48.3038 190.324 49.029C190.809 49.7674 191.78 49.9759 192.55 49.5074C193.119 49.1608 193.225 48.9455 193.408 47.7606C193.573 46.6961 193.926 45.7815 195.199 43.1308C196.179 41.0903 196.459 40.2804 196.594 39.0929C196.934 36.1181 195.322 33.8271 192.527 33.3117C191.621 33.1446 191.65 33.1447 190.826 33.3068ZM157.303 34.9008C156.826 35.1589 156.503 35.7687 156.503 36.4101C156.503 36.7764 156.622 37.0335 156.965 37.4071C157.358 37.8347 157.521 37.9125 158.047 37.9243C159.66 37.9603 160.391 36.153 159.189 35.1005C158.65 34.6279 157.945 34.5534 157.303 34.9008ZM170.566 34.9461C169.996 35.3031 169.828 35.6305 169.828 36.3856C169.828 37.8396 171.544 38.4907 172.599 37.4376C172.955 37.0832 173.021 36.9096 173.021 36.3373C173.021 35.7896 172.946 35.574 172.635 35.2265C172.125 34.6579 171.221 34.5354 170.566 34.9461Z" fill="#2B2C33"/>
<path fill-rule="evenodd" clip-rule="evenodd" d="M95.8898 0.179513C95.5494 0.364178 95.3957 0.637865 94.8577 2.01844C93.697 4.99675 91.6877 7.61308 89.2027 9.38212C88.408 9.94776 88.1605 10.3143 88.1605 10.9259C88.1605 11.4744 88.4627 11.8961 89.2462 12.4412C90.2749 13.157 91.9104 14.7602 92.7277 15.8541C93.6656 17.1091 94.2063 18.0879 94.8547 19.7038C95.5227 21.3687 95.8214 21.6989 96.6592 21.6989C97.4905 21.6989 97.82 21.351 98.4013 19.8596C99.5973 16.7912 101.419 14.4073 104.051 12.4653C104.799 11.9134 105.017 11.679 105.129 11.3045C105.355 10.5551 105.083 10.0879 103.937 9.24871C101.47 7.44289 99.763 5.18338 98.4752 2.01844C97.7842 0.319912 97.5008 -0.00723716 96.7273 0.000120016C96.4437 0.00281765 96.067 0.0835014 95.8898 0.179513ZM105.67 2.46502C105.015 2.63914 104.693 3.10436 104.693 3.87772C104.693 4.48457 104.733 4.58818 105.095 4.91006C105.808 5.54559 106.981 5.32917 107.381 4.48837C107.627 3.9714 107.631 3.78306 107.408 3.25052C107.151 2.63791 106.362 2.28109 105.67 2.46502ZM83.1336 12.9622C82.8804 13.2156 82.5726 13.9648 81.8962 15.9737C81.3581 17.5716 80.7129 19.206 80.293 20.0349C78.3264 23.9161 75.6963 26.7776 71.7508 29.3284C70.2956 30.2693 70.089 30.4797 70.0131 31.1004C69.9246 31.8229 70.2673 32.2393 71.5895 33.0156C75.3818 35.242 78.6608 38.8228 80.4832 42.7282C81.0957 44.0408 81.5695 45.3308 82.2616 47.5716C82.8467 49.4656 83.1344 49.8773 83.9493 49.9863C84.5612 50.0682 85.1124 49.7794 85.3826 49.2356C85.4854 49.0286 85.8819 47.8668 86.2634 46.6538C87.0898 44.027 87.7705 42.4393 88.8071 40.7214C90.6924 37.597 93.2717 35.02 96.4373 33.0981C97.7194 32.3197 98.117 31.899 98.117 31.3209C98.117 30.5631 97.8842 30.301 96.2791 29.2521C92.8972 27.0423 90.6435 24.7249 88.6531 21.4105C87.7789 19.9548 87.1262 18.4207 86.1941 15.6304C85.2729 12.8729 85.1006 12.625 84.1042 12.625C83.5768 12.625 83.4143 12.6814 83.1336 12.9622ZM109.075 12.9355C108.788 13.1757 108.618 13.5231 108.323 14.4716C107.095 18.4162 104.744 21.3728 101.226 23.4002C100.176 24.0054 99.9608 24.2739 99.9608 24.9799C99.9608 25.7005 100.21 26.0249 101.163 26.5475C104.589 28.4262 106.938 31.3248 108.258 35.3026C108.867 37.136 109.28 37.5407 110.341 37.3422C110.957 37.2268 111.297 36.7341 111.751 35.2952C112.953 31.4944 115.281 28.6204 118.767 26.6358C119.578 26.1743 119.863 25.9395 120.037 25.5872C120.471 24.713 120.098 24.0634 118.736 23.3171C116.165 21.9077 113.969 19.6118 112.621 16.9224C112.402 16.4871 112.015 15.4946 111.759 14.7169C111.186 12.9779 110.895 12.625 110.029 12.625C109.583 12.625 109.357 12.6985 109.075 12.9355ZM74.7332 13.5527C74.3111 13.7812 74.0248 14.3212 74.0248 14.8892C74.0248 15.2113 74.1299 15.4406 74.4244 15.7612C75.1775 16.581 76.3817 16.379 76.8078 15.3614C77.0694 14.737 76.9384 14.1976 76.4136 13.7379C75.9259 13.3107 75.3062 13.2424 74.7332 13.5527ZM97.4868 40.1757C96.5318 40.7669 96.5343 41.9889 97.4916 42.6325C98.0028 42.9761 98.4239 42.9862 98.9483 42.6672C99.8388 42.1256 99.9356 41.0312 99.1537 40.3464C98.658 39.9122 98.0182 39.8467 97.4868 40.1757Z" fill="#2B2C33"/>
</svg>
