<svg width="192" height="47" viewBox="0 0 192 47" fill="none" xmlns="http://www.w3.org/2000/svg">
<path fill-rule="evenodd" clip-rule="evenodd" d="M30.8544 0.0828805C30.0607 0.29391 29.6913 1.01354 29.6906 2.35092L29.69 3.44078H21.8767H14.0636L14.0027 2.23758C13.9488 1.17016 13.8888 0.978828 13.4706 0.542237C12.8147 -0.142357 11.838 -0.152368 11.0881 0.517695C10.5998 0.953963 10.5607 1.06731 10.5028 2.21304L10.4408 3.44078H7.64086C6.10085 3.44078 4.47945 3.51829 4.03786 3.61306C2.44424 3.95472 0.749383 5.57481 0.275172 7.20977C0.156337 7.61972 0.0768986 9.04364 0.0712475 10.868L0.0618826 13.855L21.8278 13.896L43.5937 13.9369L43.5443 10.5861C43.4976 7.41902 43.4734 7.19152 43.1037 6.44025C42.6049 5.42692 41.7185 4.54146 40.6344 3.97377C39.7979 3.53572 39.7175 3.52604 36.5117 3.46953L33.2421 3.41204L33.2411 2.65948C33.2389 0.691266 32.3153 -0.305595 30.8544 0.0828805ZM0.04832 17.5457C0.00214212 17.6663 -0.0138426 22.6251 0.0131214 28.5654L0.0618826 39.3659L0.531573 40.3831C1.10815 41.6316 2.2282 42.6882 3.46645 43.1515C4.32574 43.4731 4.65997 43.4831 14.4514 43.4831C20.0057 43.4831 24.5237 43.4287 24.4914 43.362C23.0859 40.461 22.8271 39.3964 22.8327 36.5403C22.8366 34.5958 22.8999 33.9802 23.2063 32.9074C24.5662 28.1463 28.2405 24.4745 33.0094 23.1114C34.072 22.8077 34.6925 22.7441 36.6328 22.7402C39.4595 22.7346 40.8844 23.0804 43.4545 24.3957C43.521 24.4297 43.5756 22.8531 43.5756 20.892V17.3264H21.8541C3.7046 17.3264 0.118717 17.3624 0.04832 17.5457ZM11.5471 24.7168C12.4321 25.4337 12.496 26.4797 11.7032 27.2724L11.1543 27.8214H8.78078H6.4073L5.85833 27.2724C5.06556 26.4797 5.1295 25.4337 6.01446 24.7168C6.30655 24.4803 6.72667 24.4378 8.78078 24.4378C10.8349 24.4378 11.255 24.4803 11.5471 24.7168ZM22.0834 24.8441C22.6997 25.3627 22.872 26.143 22.5201 26.8232C22.0488 27.7347 21.77 27.8214 19.31 27.8214C17.9818 27.8214 16.9316 27.7483 16.7221 27.641C16.1135 27.3297 15.8118 26.8123 15.8079 26.0733C15.805 25.5136 15.8983 25.2808 16.2763 24.9027L16.7482 24.4307H19.1701C21.5333 24.4307 21.6042 24.4407 22.0834 24.8441ZM35.2604 26.2071C31.7786 26.7307 28.8917 28.794 27.3459 31.8637C26.0282 34.4804 25.8574 37.5131 26.8752 40.2174C27.6759 42.3446 29.4759 44.4848 31.3853 45.5798C32.5934 46.2725 34.4737 46.8478 35.9261 46.9689C39.9628 47.3055 44.1971 44.8789 45.9535 41.2227C46.801 39.4584 47.0383 38.4342 47.0383 36.5403C47.0383 34.6743 46.7977 33.6293 45.979 31.9386C44.4906 28.8659 41.4782 26.7 38.0239 26.2195C36.6523 26.0289 36.4513 26.0279 35.2604 26.2071ZM37.3487 29.7549C37.5765 29.8414 37.908 30.1503 38.0853 30.4411C38.367 30.9032 38.4077 31.256 38.4082 33.2384L38.4089 35.5069L39.7046 36.1386C41.076 36.8072 41.5246 37.1761 41.7639 37.832C42.0816 38.7026 41.4054 39.7919 40.4179 40.0002C40.0143 40.0855 39.5121 39.9006 37.6592 38.9851C34.7628 37.5539 34.8567 37.7212 34.8567 33.997C34.8567 30.935 34.9786 30.3612 35.7255 29.9059C36.2879 29.5629 36.7345 29.5214 37.3487 29.7549ZM11.5482 33.3853C12.4107 33.9895 12.4317 35.4173 11.5884 36.1269C11.1107 36.529 11.0327 36.5403 8.7522 36.5403H6.4073L5.85833 35.9913C5.46647 35.5995 5.30936 35.2969 5.30936 34.9338C5.30936 34.3321 5.67959 33.555 6.0763 33.324C6.23308 33.2328 7.4392 33.1572 8.78514 33.1544C10.6574 33.1507 11.2884 33.2034 11.5482 33.3853Z" fill="#2B2C33"/>
<path fill-rule="evenodd" clip-rule="evenodd" d="M113.528 0.382379C113.056 0.605742 111.361 1.47688 109.763 2.31805C106.026 4.28441 105.331 4.64758 95.4887 9.77881C90.9561 12.1419 86.7361 14.3475 86.1109 14.6803C85.4857 15.0131 84.0151 15.7815 82.8428 16.388C81.6706 16.9945 80.2 17.7618 79.5748 18.0931C78.2383 18.8014 76.8578 19.5235 71.4363 22.3501C67.1775 24.5705 67 24.7038 67 25.6847C67 25.957 67.1439 26.2727 67.3907 26.5417C67.7217 26.9024 68.5431 27.2268 72.7546 28.6601C75.4898 29.591 78.4161 30.5902 79.2575 30.8805C80.5762 31.3354 80.8209 31.3816 81.0304 31.2152C81.1641 31.1091 83.0332 29.5177 85.184 27.6787C89.8856 23.659 94.2409 19.9383 101.456 13.7772C104.426 11.2416 107.041 9.00117 107.269 8.79855C107.495 8.59607 107.627 8.52617 107.561 8.64339C107.495 8.76061 105.135 11.6355 102.317 15.0321C99.4993 18.4286 94.9114 23.9594 92.1219 27.3227C89.3324 30.686 87.0945 33.477 87.1488 33.5249C87.2031 33.5728 88.2386 33.9476 89.4499 34.3581C90.6612 34.7684 92.5475 35.412 93.6415 35.7879C94.7356 36.1639 98.1564 37.3326 101.243 38.3847C104.33 39.437 107.237 40.4329 107.703 40.5978C108.887 41.0162 109.413 40.9905 109.914 40.4893C110.139 40.265 110.355 39.9292 110.396 39.7434C110.436 39.5575 110.79 37.2315 111.181 34.5745C111.573 31.9174 112.795 23.7012 113.897 16.3162C114.999 8.93112 115.936 2.49111 115.979 2.00503C116.073 0.959826 115.846 0.493066 115.09 0.177204C114.468 -0.0826757 114.527 -0.0903484 113.528 0.382379ZM84.9031 40.9604C84.9031 46.3022 84.9285 46.4948 85.6806 46.8374C86.2177 47.0822 86.956 47.0463 87.3017 46.7586C87.587 46.5211 93.1401 39.0558 93.1411 38.9082C93.1415 38.8691 91.368 38.2362 89.2 37.5018C87.0322 36.7673 85.1785 36.1372 85.0807 36.1012C84.9408 36.0498 84.9031 37.0808 84.9031 40.9604Z" fill="#2B2C33"/>
<path fill-rule="evenodd" clip-rule="evenodd" d="M183.293 0.233519C180.953 0.354867 178.844 0.533196 178.606 0.629504C177.858 0.93191 177.412 1.92596 177.692 2.66416C177.779 2.89113 178.493 3.73382 179.281 4.53654L180.712 5.99608L170.972 15.7455L161.233 25.4947L156.733 21.0164C154.258 18.5533 152.002 16.4217 151.72 16.2795C150.988 15.9111 149.787 15.948 149.112 16.3599C148.414 16.7853 137.196 27.9147 136.592 28.7818C136.017 29.6056 135.877 30.2728 136.102 31.1104C136.298 31.8377 137.33 33.0758 138.052 33.449C138.622 33.7436 140.008 33.7426 140.564 33.4473C140.803 33.3206 143.128 31.0815 145.732 28.4714L150.466 23.7257L155.042 28.2945C160.32 33.5654 160.628 33.7715 162.231 33.11C162.648 32.9378 166.195 29.4983 174.022 21.6754L185.216 10.4872L186.622 11.872C187.395 12.6338 188.186 13.3371 188.378 13.4352C189.188 13.8466 190.228 13.4731 190.71 12.5976C190.909 12.2371 191.517 1.90285 191.368 1.42436C191.17 0.792264 190.894 0.406231 190.489 0.196922C189.967 -0.0735415 189.123 -0.0692079 183.293 0.233519ZM181.132 19.2785L177.033 23.3764V34.9225C177.033 45.9045 177.047 46.4817 177.326 46.7344C177.582 46.966 178.113 47 181.475 47C185.005 47 185.352 46.9753 185.595 46.7064C185.839 46.4376 185.861 45.1223 185.861 31.0813C185.861 16.0605 185.855 15.744 185.547 15.4652C185.24 15.1878 185.129 15.2841 181.132 19.2785ZM168.961 31.5128L164.5 35.9388L164.547 41.2416C164.591 46.2769 164.609 46.5562 164.905 46.7724C165.153 46.9539 165.999 47 169.093 47C172.652 47 172.992 46.9758 173.237 46.7051C173.481 46.4358 173.5 45.5677 173.463 36.7485L173.421 27.087L168.961 31.5128ZM145.733 33.1722C142.819 36.062 142.108 36.5784 140.6 36.902L139.794 37.0749V41.7718C139.794 46.1183 139.816 46.4886 140.087 46.7344C140.343 46.966 140.874 47 144.236 47C147.95 47 148.102 46.9876 148.397 46.6623C148.687 46.3413 148.705 45.9339 148.747 38.4485C148.771 34.1166 148.735 30.5306 148.667 30.4794C148.598 30.4282 147.278 31.6399 145.733 33.1722ZM152.153 38.2965C152.153 45.2684 152.185 46.3319 152.403 46.6432C152.65 46.9953 152.704 47 156.577 47C160.286 47 160.517 46.9825 160.821 46.679C161.128 46.3722 161.142 46.144 161.142 41.5533C161.142 36.1956 161.261 36.7097 159.972 36.4919C158.533 36.249 157.923 35.8134 155.117 33.0243C153.613 31.5296 152.331 30.3067 152.268 30.3067C152.205 30.3067 152.153 33.9022 152.153 38.2965Z" fill="#2B2C33"/>
</svg>
