<svg width="194" height="47" viewBox="0 0 194 47" fill="none" xmlns="http://www.w3.org/2000/svg">
<path fill-rule="evenodd" clip-rule="evenodd" d="M102.128 0.176984C101.836 0.398382 101.829 0.601753 101.789 10.4717L101.749 20.5406H112.608C123.369 20.5406 123.471 20.5378 123.86 20.2317C124.32 19.8697 124.339 19.6122 124.019 18.0388C123.452 15.2513 122.164 12.2326 120.477 9.73885C119.242 7.91253 116.382 5.06757 114.575 3.86776C111.137 1.58449 107.335 0.234196 103.767 0.0284407C102.709 -0.0324961 102.363 -0.00105917 102.128 0.176984ZM94.9017 1.77952C89.8593 2.41883 85.2677 4.68094 81.6349 8.31584C78.3203 11.6321 76.2862 15.4669 75.3522 20.1596C74.8754 22.5555 74.8836 26.2013 75.3714 28.586C75.805 30.7063 76.548 32.8822 77.4085 34.5523C83.1046 45.6066 96.355 50.0976 107.491 44.7483C109.108 43.9716 111.204 42.5979 112.371 41.5492C113.829 40.2393 114.381 40.9961 105.405 32.0142L97.5835 24.1871V13.1349V2.08271L97.2523 1.85088C96.8962 1.60133 96.4202 1.58687 94.9017 1.77952ZM89.1491 18.385C89.3447 18.5806 89.4494 18.948 89.5853 19.9157C89.6002 20.0229 90.0089 20.2712 90.4931 20.4676C92.163 21.1448 92.9543 22.3391 92.2199 23.0734C91.7986 23.4948 91.2693 23.4435 90.6777 22.924C89.3684 21.7742 87.5847 21.7297 86.5782 22.8215C86.0854 23.3562 86.0009 24.3389 86.394 24.965C86.8402 25.6754 87.3192 25.9166 88.5996 26.0756C90.5256 26.3147 91.8129 27.1058 92.5633 28.5116C93.0079 29.3441 93.0078 30.9541 92.5633 31.796C92.1324 32.6117 91.085 33.5484 90.2444 33.8694C89.5753 34.1249 89.5515 34.1553 89.5083 34.8088C89.4053 36.3647 87.6012 36.3947 87.6012 34.8406C87.6012 34.2775 87.5772 34.2514 86.6511 33.8095C85.664 33.3384 84.6214 32.3558 84.6214 31.8966C84.6214 31.7512 84.7259 31.4832 84.8534 31.3011C85.2227 30.7737 85.9048 30.8647 86.8379 31.5658C87.5371 32.0912 87.7274 32.1618 88.443 32.1618C89.3797 32.1618 89.9381 31.9161 90.4888 31.2618C91.029 30.6198 91.0298 29.682 90.4904 29.0411C89.9672 28.4193 89.679 28.2852 88.5172 28.123C86.4075 27.8287 85.1913 27.0881 84.4808 25.6655C84.0536 24.8102 84.0043 23.4662 84.3683 22.5981C84.7318 21.7309 85.7339 20.751 86.6422 20.3745C87.4363 20.0454 87.4522 20.0269 87.4522 19.4288C87.4522 18.5935 87.7839 18.1568 88.4184 18.1568C88.6948 18.1568 89.0236 18.2594 89.1491 18.385ZM110.546 31.3531C114.192 35.0065 117.327 38.0558 117.511 38.1294C118.018 38.3315 118.479 38.047 119.306 37.0221C121.726 34.0248 123.363 30.5468 124.055 26.9372C124.288 25.724 124.292 25.5404 124.092 25.1845L123.869 24.7868L113.892 24.7487L103.916 24.7105L110.546 31.3531Z" fill="#2B2C33"/>
<path fill-rule="evenodd" clip-rule="evenodd" d="M24.0296 0.166536C19.9817 0.744175 15.7594 2.52861 12.758 4.92993L12.0876 5.4666L13.0686 6.59918C13.608 7.22204 14.1249 7.72452 14.2171 7.71586C14.3093 7.70703 14.8808 7.34085 15.4869 6.90203C17.7311 5.27783 20.7391 4.01683 23.7001 3.45889C25.6226 3.09664 28.9161 3.10389 30.8901 3.47464C38.3073 4.86784 44.2818 10.0779 46.6185 17.1905C47.5249 19.9496 47.6404 21.2688 47.6404 28.8594V35.6078L46.9266 34.9095L46.213 34.211L45.0708 35.3497L43.9288 36.4884L46.5747 39.1267L49.2206 41.765L51.8665 39.1267L54.5125 36.4884L53.3704 35.3497L52.2283 34.211L51.5254 34.8989L50.8223 35.5868L50.7599 27.8045C50.6981 20.0877 50.6942 20.0079 50.2922 18.3662C49.1111 13.5449 46.8915 9.67141 43.4312 6.39246C40.148 3.28147 35.8289 1.0935 31.4432 0.319533C29.4352 -0.0349911 25.9458 -0.106999 24.0296 0.166536ZM2.60404 7.88949L0 10.4897L1.12843 11.6147L2.25671 12.7399L2.85846 12.0872C3.18951 11.7283 3.51662 11.4346 3.58536 11.4346C3.6541 11.4346 3.71051 14.6784 3.71083 18.6432C3.71146 26.393 3.77293 27.1948 4.58737 30.0626C6.59551 37.1337 12.2807 43.1568 19.2673 45.6148C21.1746 46.2859 23.0622 46.6885 25.3461 46.9113C29.9571 47.3613 35.3936 46.0763 39.4373 43.5805C41.0024 42.6146 42.2677 41.6782 42.2677 41.4858C42.2677 41.3349 40.555 39.2726 40.3684 39.1989C40.3041 39.1735 39.6919 39.5564 39.0078 40.0499C37.3279 41.2616 34.5899 42.541 32.4313 43.1231C30.8861 43.5397 30.301 43.6136 27.9667 43.687C24.9788 43.7809 23.4259 43.5934 21.0713 42.8544C15.0272 40.9576 9.88505 35.9132 7.91547 29.9486C6.98361 27.1268 6.97935 27.0801 6.91393 18.919L6.85309 11.3558L7.57572 12.0609L8.2982 12.7659L9.43975 11.6278L10.5811 10.4897L7.9771 7.88949C6.54495 6.45958 5.33608 5.28949 5.29057 5.28949C5.24506 5.28949 4.03619 6.45958 2.60404 7.88949ZM31.7821 12.8714C29.5351 13.6493 26.7439 14.6095 25.5798 15.0055L23.4631 15.7253V21.9156V28.1057L23.9766 28.2877C24.259 28.3878 26.9791 29.3177 30.021 30.3544C33.0629 31.3912 35.7047 32.3041 35.8915 32.3833C36.0784 32.4626 36.2739 32.4848 36.326 32.4328C36.3782 32.381 36.4209 30.3676 36.4209 27.9589V23.5795L37.8036 23.5339L39.1862 23.4884V21.9127V20.3371L37.8036 20.2915L36.4209 20.246V15.8403C36.4209 11.7451 36.4014 11.4354 36.1443 11.4459C35.9921 11.4522 34.0292 12.0937 31.7821 12.8714ZM14.9331 16.4376C14.6306 16.5891 14.2216 16.954 14.0244 17.2485C13.6744 17.771 13.6657 17.8827 13.6664 21.8967C13.6668 25.7227 13.6888 26.0452 13.981 26.523C14.5996 27.5349 15.0291 27.6627 17.8138 27.6633L20.3026 27.6639V21.9127V16.1616L17.8928 16.1619C15.9139 16.162 15.3847 16.2114 14.9331 16.4376ZM16.8262 34.0709C16.8262 37.2544 16.8349 37.3413 17.219 37.9949C17.6858 38.7891 18.6605 39.3238 19.6415 39.3238H20.3026V35.0695V30.8152H18.5644H16.8262V34.0709Z" fill="#2B2C33"/>
<path fill-rule="evenodd" clip-rule="evenodd" d="M174.239 0.161331C172.914 0.383451 171.227 1.2892 170.161 2.35093C167.1 5.40237 167.201 10.3711 170.386 13.3838C174.12 16.9148 180.189 15.7737 182.495 11.1075C183.996 8.07094 183.374 4.61163 180.904 2.25521C179.692 1.09942 178.318 0.399435 176.761 0.144428C175.568 -0.051052 175.505 -0.0506847 174.239 0.161331ZM146.187 2.59712C145.619 2.89585 145.2 3.31694 144.781 4.0127L144.184 5.00333V24.4957V43.9882L144.642 44.9076C145.134 45.8956 145.744 46.4422 146.737 46.7847C147.187 46.9397 150.384 47 158.174 47H168.986V41.2376C168.986 35.7105 169.002 35.4555 169.362 34.9972C169.569 34.7345 170.044 34.4345 170.418 34.3305C170.81 34.2216 173.299 34.1411 176.289 34.1406L181.479 34.1395V25.4154V16.6914L180.386 17.2471C178.609 18.1497 177.539 18.4005 175.508 18.3891C174.175 18.3816 173.343 18.2739 172.477 17.9965C168.291 16.6565 165.301 12.8631 165.003 8.51518C164.86 6.42717 165.142 5.14865 166.352 2.40145C166.432 2.21939 164.439 2.1718 156.725 2.1718H146.997L146.187 2.59712ZM185.413 14.5425C184.882 15.0017 184.875 15.0024 184.496 14.6484C184.114 14.2923 184.111 14.2938 183.106 15.2986L182.099 16.3055L182.469 16.6748L182.838 17.0443L182.397 17.5132C182.105 17.824 181.957 18.1992 181.957 18.6271C181.957 19.2155 182.222 19.5391 184.979 22.3094C186.641 23.9798 188.325 25.5148 188.721 25.7206C189.718 26.2385 191.455 26.1339 192.379 25.5003C193.659 24.623 194.206 22.9947 193.715 21.5172C193.467 20.7705 192.923 20.1347 190.252 17.4681C186.723 13.946 186.358 13.7254 185.413 14.5425ZM163.835 18.1518C164.636 18.5808 164.636 20.3026 163.835 20.7316C163.635 20.8385 161.04 20.9115 157.437 20.9115H151.375L150.995 20.4274C150.479 19.7722 150.507 18.9807 151.065 18.4229L151.516 17.9719H157.507C161.064 17.9719 163.635 18.045 163.835 18.1518ZM174.565 23.497C175.182 23.9827 175.243 25.1264 174.681 25.6882C174.322 26.0478 174.069 26.0557 162.964 26.0557C150.655 26.0557 150.982 26.0823 150.726 25.0623C150.591 24.5225 150.875 23.6971 151.31 23.3665C151.56 23.1769 153.932 23.1266 162.853 23.122C173.938 23.1161 174.087 23.1209 174.565 23.497ZM167.8 28.7114C168.377 29.2879 168.399 30.1916 167.852 30.7748L167.452 31.1999H159.458C151.503 31.1999 151.462 31.1979 151.039 30.8005C150.456 30.2532 150.468 29.3079 151.065 28.7114L151.516 28.2603H159.433H167.349L167.8 28.7114ZM171.926 41.0658C171.926 43.1575 171.994 44.7904 172.077 44.6943C172.161 44.5984 173.731 42.9375 175.568 41.0037C177.404 39.0698 178.907 37.4371 178.907 37.3752C178.907 37.3133 177.336 37.2627 175.416 37.2627H171.926V41.0658Z" fill="#2B2C33"/>
</svg>
