<svg width="186" height="47" viewBox="0 0 186 47" fill="none" xmlns="http://www.w3.org/2000/svg">
<path fill-rule="evenodd" clip-rule="evenodd" d="M14.286 0.10367C13.2655 0.42976 12.5353 1.05923 12.0883 1.99825L11.8037 2.59582V7.838V13.0803L12.1047 13.6916C12.4795 14.4528 13.2052 15.1412 13.9415 15.4338C14.4409 15.6322 14.6187 15.6457 17.1819 15.6797L19.8939 15.7156L21.181 17.4284C21.8889 18.3704 22.6087 19.2349 22.7805 19.3494C23.1784 19.6147 23.8225 19.6281 24.2299 19.3796C24.3899 19.282 25.2094 18.4169 26.051 17.457L27.5813 15.7117L30.0811 15.677C32.4213 15.6447 32.6146 15.629 33.1092 15.4331C33.8452 15.1414 34.5709 14.4535 34.946 13.6916L35.2469 13.0803V7.838V2.59582L34.9622 1.99825C34.5922 1.22186 34.0454 0.672006 33.285 0.311716L32.6728 0.0216643L23.6632 0.00392105C16.5631 -0.0100529 14.5757 0.0110919 14.286 0.10367ZM2.76037 2.00542C1.75709 2.20253 0.812926 2.9448 0.33781 3.90993L0.0361741 4.52248V9.76475V15.0069L0.29552 15.5682C0.856318 16.7815 1.98187 17.5246 3.38074 17.6052L4.17321 17.6508L5.36835 19.2549C6.73836 21.0939 7.07989 21.4429 7.59454 21.5298C8.30721 21.6503 8.56168 21.4581 10.2973 19.4892L11.8848 17.6883L11.6604 17.5492C11.537 17.4727 11.1033 17.0762 10.6967 16.6682C10.1582 16.1278 9.85456 15.7265 9.57884 15.1908C8.83399 13.7435 8.86185 14.0241 8.86185 7.97397C8.86185 5.01599 8.89476 2.44073 8.93494 2.25107L9.00812 1.90631L6.08498 1.91643C4.47733 1.92194 2.98119 1.96193 2.76037 2.00542ZM38.1031 2.10664C38.1454 2.22404 38.1941 4.65248 38.2111 7.50317C38.2469 13.506 38.236 13.6282 37.5327 15.0529C37.1816 15.7641 36.9635 16.064 36.3582 16.6682C35.9492 17.0762 35.5136 17.4727 35.3903 17.5492L35.1659 17.6883L36.7534 19.4892C38.4871 21.4559 38.7439 21.6502 39.4529 21.5304C39.9746 21.4422 40.2963 21.1126 41.6434 19.286L42.8489 17.6516L43.6556 17.6055C44.2653 17.5708 44.5944 17.4994 45.003 17.3131C45.7132 16.9892 46.4269 16.2786 46.7552 15.5682L47.0145 15.0069V9.76475V4.52257L46.7135 3.91112C46.3393 3.15101 45.6134 2.46215 44.8768 2.16805C44.3683 1.96506 44.2296 1.95596 41.1873 1.92525L38.0261 1.89326L38.1031 2.10664ZM22.4235 22.635C21.9985 22.7153 21.4137 22.9248 20.8946 23.1825C19.0036 24.1213 17.7945 25.9515 17.6715 28.0616C17.5705 29.7943 18.1646 31.3217 19.4244 32.5684C20.6034 33.735 21.8834 34.2644 23.5253 34.2644C25.1673 34.2644 26.4473 33.735 27.6262 32.5684C28.2174 31.9834 28.4507 31.6693 28.7541 31.0494C29.5991 29.3233 29.6162 27.5259 28.8034 25.8548C27.6433 23.4694 25.0176 22.1443 22.4235 22.635ZM7.12374 25.5386C6.37255 25.6645 5.58523 26.1151 4.97313 26.7693C4.29162 27.4979 4.0274 28.1283 3.96571 29.1731C3.89143 30.4321 4.26294 31.3649 5.18632 32.2381C6.7333 33.7013 9.06649 33.6589 10.5887 32.14C12.1303 30.6019 12.1303 28.1873 10.5887 26.6492C9.99108 26.0528 9.30819 25.6909 8.50018 25.5419C7.8936 25.4302 7.7728 25.4299 7.12374 25.5386ZM38.4187 25.5667C36.8243 25.9131 35.6383 27.1604 35.3603 28.7834C35.1517 30.0008 35.5578 31.2379 36.4619 32.14C37.9841 33.6588 40.3174 33.7012 41.8644 32.2381C42.7143 31.4344 43.1073 30.5352 43.1073 29.3946C43.1073 28.2541 42.7143 27.3549 41.8644 26.5511C41.2844 26.0026 40.5915 25.6554 39.8272 25.5302C39.178 25.4238 39.0626 25.4268 38.4187 25.5667ZM4.05388 35.4643C3.08719 35.7176 2.33572 36.1518 1.59106 36.8872C0.444913 38.0192 -0.0547487 39.3773 0.00473264 41.1983C0.0394837 42.2613 0.134636 42.4843 0.724761 42.8859L1.02869 43.0928H5.42793H9.82716V42.3994C9.82716 40.3807 10.7259 38.3185 12.2776 36.777L13.0363 36.0232L12.5417 35.7892C11.5635 35.3264 11.1352 35.2808 7.80461 35.2848C5.0749 35.2881 4.64851 35.3085 4.05388 35.4643ZM35.5434 35.4224C35.2514 35.4931 34.7879 35.6573 34.5134 35.7871L34.0144 36.0232L34.7731 36.777C36.3248 38.3185 37.2235 40.3807 37.2235 42.3994V43.0928H41.6228H46.022L46.3259 42.8859C46.916 42.4843 47.0112 42.2613 47.046 41.1983C47.1053 39.3837 46.6125 38.0452 45.4598 36.8897C44.7069 36.135 43.9851 35.7221 42.9606 35.46C42.3191 35.296 41.9523 35.2791 39.1624 35.286C36.8528 35.2918 35.9405 35.3261 35.5434 35.4224ZM17.3267 37.3043C16.6558 37.4198 16.0038 37.6492 15.4351 37.9699C14.7072 38.3803 13.7913 39.3384 13.394 40.1049C12.84 41.174 12.769 41.6098 12.769 43.9428C12.769 45.9326 12.7766 46.0185 12.9759 46.3114C13.0897 46.4786 13.2995 46.7019 13.4423 46.8077C13.7019 47 13.702 47 23.5253 47C33.3487 47 33.3488 47 33.6084 46.8077C33.7512 46.7019 33.961 46.4786 34.0748 46.3114C34.2741 46.0185 34.2816 45.9326 34.2816 43.9428C34.2816 41.6113 34.2108 41.1759 33.6579 40.1049C33.2192 39.2554 32.2243 38.2585 31.4199 37.8626C30.1651 37.2448 30.4376 37.2668 23.8011 37.2456C20.4892 37.235 17.5757 37.2614 17.3267 37.3043Z" fill="#2B2C33"/>
<path fill-rule="evenodd" clip-rule="evenodd" d="M112.433 0.0786481C112.159 0.175231 97.1381 15.1534 96.9368 15.5311C96.6938 15.9873 96.6929 18.6565 96.9356 19.1248C97.2098 19.6536 97.5853 19.7483 99.4093 19.7483H101.073L108.818 12.0217L116.564 4.29522V3.71415C116.564 3.14349 116.542 3.11114 115.379 1.91033C113.655 0.130393 113.16 -0.17717 112.433 0.0786481ZM72.0414 5.02208C71.9746 5.04365 71.6193 5.15368 71.2518 5.26662C69.8358 5.70204 68.3782 6.95931 67.6674 8.35849C66.9847 9.70254 67 9.38431 67 22.2137C67 30.3765 67.0416 34.2348 67.1343 34.6782C67.5656 36.7413 69.1694 38.5283 71.2655 39.2814C72.0306 39.5563 72.1272 39.5606 78.2065 39.5983L84.3716 39.6365V42.8523C84.3716 45.6352 84.3988 46.1142 84.5739 46.4098C84.9426 47.0324 85.6215 47.177 86.2843 46.7738C86.501 46.642 88.7531 44.979 91.2888 43.0782L95.8992 39.6223L102.132 39.6203C107.034 39.6186 108.537 39.5816 109.175 39.4467C111.577 38.9388 113.565 36.9422 114.007 34.5932C114.105 34.0767 114.134 30.4525 114.109 22.078L114.073 10.2899L108.485 15.872C103.548 20.804 102.806 21.4995 102.11 21.8434L101.323 22.2325H99.2552C97.2781 22.2325 97.1581 22.2186 96.5087 21.9149C95.6263 21.5022 94.8835 20.7223 94.5658 19.8753C94.3394 19.2715 94.3181 18.9916 94.3544 17.083C94.3915 15.1322 94.4178 14.9177 94.6812 14.4162C94.867 14.0627 96.5318 12.3045 99.4147 9.41739L103.862 4.96391L88.0122 4.97348C79.2951 4.97869 72.1082 5.00063 72.0414 5.02208ZM88.8438 12.6587C89.2819 13.0265 89.4071 13.4592 89.2301 13.9944C88.9607 14.8085 89.2279 14.7801 81.8552 14.7759C74.7346 14.7718 75.0262 14.7972 74.6002 14.144C74.2302 13.5771 74.5735 12.6922 75.2606 12.4416C75.3609 12.4052 78.377 12.3709 81.963 12.3657L88.4833 12.3561L88.8438 12.6587ZM88.5653 19.9234C89.4305 20.2839 89.5747 21.4201 88.8261 21.9778C88.4906 22.2278 88.3682 22.2332 82.1459 22.2694C77.7629 22.2948 75.6649 22.2646 75.3459 22.1718C74.8706 22.0334 74.4116 21.4806 74.4108 21.0449C74.4099 20.6447 74.7861 20.0955 75.1774 19.9257C75.762 19.672 87.9573 19.67 88.5653 19.9234ZM106.135 27.3925C106.47 27.5715 106.756 28.2952 106.661 28.7252C106.619 28.9164 106.42 29.2112 106.218 29.3804L105.852 29.6881L90.5051 29.6563L75.1587 29.6247L74.8471 29.3326C74.2638 28.786 74.3353 27.9363 75.0086 27.417C75.2679 27.2169 105.761 27.193 106.135 27.3925Z" fill="#2B2C33"/>
<path fill-rule="evenodd" clip-rule="evenodd" d="M160.395 0.959308L158.512 1.91222L159.799 3.20634L161.086 4.50035L162.687 2.92957C163.568 2.06556 164.308 1.31405 164.332 1.25934C164.398 1.10849 163.651 0.382862 163.217 0.176472C163.006 0.0759467 162.708 -0.00333386 162.555 0.000107963C162.402 0.00354979 161.43 0.435202 160.395 0.959308ZM167.933 2.72995C166.873 2.93966 166.375 3.27791 164.726 4.9072L163.113 6.50017L163.998 7.43314C164.484 7.94621 165.031 8.58579 165.214 8.85425C166.429 10.6404 166.444 13.3689 165.248 15.2312C164.542 16.3316 163.202 17.345 161.949 17.727C161.833 17.7622 161.707 17.8856 161.669 18.0013C161.058 19.8331 159.636 21.3554 158.023 21.9066C157.715 22.0116 157.436 22.1846 157.402 22.2909C156.925 23.7863 155.684 25.2644 154.374 25.8978C153.902 26.1258 153.432 26.3404 153.329 26.3747C153.227 26.409 153.047 26.6959 152.93 27.0124C152.077 29.32 149.878 30.8515 147.419 30.8515C145.711 30.8515 144.34 30.2206 142.923 28.7823C142.436 28.2884 141.981 27.8844 141.913 27.8844C141.844 27.8844 140.71 28.969 139.394 30.2944L137 32.7043V33.405V34.1057L143.241 40.3698C146.674 43.8151 149.663 46.7195 149.883 46.8242C150.767 47.2448 150.733 47.271 155.647 42.3667L160.146 37.8765L162.159 37.8159C164.224 37.7537 164.929 37.6298 166.079 37.1273C167.419 36.5415 168.209 35.838 173.549 30.4727C179.654 24.3378 179.556 24.4648 179.556 22.7217C179.556 21.9515 179.498 21.648 179.251 21.114C178.87 20.29 178.322 19.6574 177.643 19.2589L177.118 18.9502L177.215 18.3436C177.518 16.4597 176.885 14.9163 175.435 13.9985C174.973 13.706 174.8 13.5304 174.852 13.4051C174.893 13.3071 174.949 12.7998 174.976 12.2776C175.015 11.5107 174.976 11.1969 174.77 10.646C174.476 9.86259 173.562 8.7872 172.937 8.48978C172.558 8.30926 172.532 8.2644 172.611 7.91215C172.658 7.70208 172.69 7.10296 172.683 6.58075C172.666 5.39451 172.389 4.71932 171.591 3.91868C170.891 3.21714 170.311 2.90607 169.385 2.73434C168.611 2.59085 168.635 2.59097 167.933 2.72995ZM153.516 3.07188C152.705 3.26984 151.912 3.91856 151.515 4.70947C151.018 5.69846 151.184 7.00101 151.928 7.94478L152.386 8.52491L151.885 8.29715C150.885 7.842 149.633 8.04875 148.768 8.81177C147.793 9.67258 147.478 10.7151 147.829 11.925C147.992 12.4879 148.175 12.7682 148.809 13.4265C149.238 13.8716 149.56 14.2358 149.525 14.2358C149.49 14.2358 149.235 14.1557 148.958 14.0578C146.986 13.3603 144.928 14.8094 144.935 16.8901C144.938 17.8575 145.225 18.4577 146.144 19.4222C146.802 20.1138 146.84 20.1782 146.482 19.9947C146.26 19.881 145.767 19.7597 145.388 19.7252C143.654 19.5676 142.159 20.9551 142.159 22.7217C142.159 23.8429 142.416 24.254 144.26 26.0748C146.146 27.9375 146.401 28.0777 147.72 27.9726C148.539 27.9075 148.966 27.7147 149.539 27.1529C150.568 26.1419 150.707 24.7493 149.93 23.2239C149.905 23.1737 150.074 23.2455 150.308 23.3834C150.9 23.7337 151.964 23.8129 152.717 23.5625C153.38 23.3416 154.151 22.6439 154.485 21.9612C154.797 21.3254 154.774 20.0156 154.441 19.3786L154.181 18.8841L154.736 19.1372C155.502 19.4862 156.652 19.4839 157.32 19.1321C157.952 18.799 158.705 17.937 158.882 17.3445C159.088 16.6564 159.047 15.788 158.782 15.202C158.653 14.9174 158.548 14.6668 158.548 14.6449C158.548 14.6231 158.794 14.7144 159.095 14.8478C159.806 15.1635 160.831 15.1683 161.523 14.8595C162.162 14.5744 162.963 13.7186 163.172 13.0984C163.258 12.8427 163.33 12.3638 163.331 12.034C163.337 10.87 163.033 10.4711 159.293 6.74086C156.085 3.54056 155.846 3.32918 155.241 3.15068C154.562 2.95034 154.1 2.92934 153.516 3.07188ZM175.241 32.8172C172.539 35.5303 169.982 38.0155 169.558 38.34C168.576 39.0932 166.93 39.9103 165.685 40.2625L164.712 40.5379L167.875 43.6929C169.615 45.428 171.163 46.8854 171.315 46.9314C172.084 47.1639 172.065 47.1797 178.68 40.5507C182.475 36.7471 185.048 34.0783 185.148 33.8426C185.472 33.0725 185.285 32.7928 182.733 30.2319C181.446 28.9407 180.34 27.8844 180.274 27.8844C180.208 27.8844 177.943 30.1042 175.241 32.8172Z" fill="#2B2C33"/>
</svg>
