<svg width="180" height="47" viewBox="0 0 180 47" fill="none" xmlns="http://www.w3.org/2000/svg">
<path fill-rule="evenodd" clip-rule="evenodd" d="M17.0318 5.29566L22.3389 10.5913H26.2466H30.1543L24.8472 5.29566L19.5401 0H15.6324H11.7246L17.0318 5.29566ZM31.0406 5.29566L36.3477 10.5913H41.6939C45.5003 10.5913 47.0401 10.5445 47.0401 10.4286C47.0401 10.0304 46.5581 8.47114 46.1642 7.59544C45.5205 6.16444 44.7564 5.04941 43.6105 3.86965C41.8601 2.06766 39.8667 0.913795 37.464 0.311855C36.3122 0.0232419 35.8284 0 30.9764 0H25.7335L31.0406 5.29566ZM5.82354 2.0478C2.99037 3.89716 0.974276 6.8314 0.231367 10.1868L0.141858 10.5913H8.20563H16.2695L11.7161 6.03116C9.21161 3.52308 7.06 1.47102 6.93481 1.47102C6.80946 1.47102 6.30942 1.7305 5.82354 2.0478ZM0 25.2885C0 33.6224 0.0401097 35.7775 0.211607 36.6521C1.00421 40.6962 3.51533 43.989 7.15187 45.7529C9.89376 47.0827 8.77955 46.999 23.7413 46.999H36.939L38.3368 46.5123C42.7251 44.9848 45.7518 41.7465 46.9248 37.3235C47.2376 36.1443 47.2472 35.8439 47.2976 25.5589L47.3495 15.0044H23.6748H0V25.2885ZM25.8057 23.0071C28.8471 24.681 31.4818 26.2132 31.6604 26.4118C32.4086 27.2434 32.3789 28.5689 31.5959 29.3006C31.3716 29.5102 29.8277 30.4272 28.1651 31.3382C19.4992 36.0867 20.0286 35.8192 19.2913 35.8192C18.5459 35.8192 18.0215 35.5255 17.4833 34.8064C17.1869 34.4106 17.1792 34.2358 17.1792 27.9018C17.1792 21.9236 17.2005 21.3644 17.4445 20.9187C17.8633 20.1534 18.5039 19.8314 19.4649 19.903C20.1939 19.9574 20.8349 20.2712 25.8057 23.0071Z" fill="#2B2C33"/>
<path fill-rule="evenodd" clip-rule="evenodd" d="M70.3763 0.111679C69.5122 0.374634 68.7354 1.03246 68.2918 1.87718C67.9706 2.48857 67.9657 4.14512 68.283 4.78286C68.5522 5.32358 69.2825 6.08446 69.8123 6.37591C70.3484 6.67074 72.2972 6.66547 72.8427 6.3675C73.462 6.02936 74.0317 5.38998 74.3676 4.65622C74.6267 4.09039 74.6667 3.84802 74.6166 3.14828C74.5482 2.19298 74.3051 1.63632 73.6632 0.96644C72.9128 0.183223 71.4185 -0.205373 70.3763 0.111679ZM83.5053 0.246609C82.2968 0.718547 81.5492 1.76735 81.452 3.12719C81.4 3.85267 81.4379 4.08387 81.7017 4.65547C82.0406 5.38923 82.4647 5.86619 83.1662 6.30248L83.619 6.58401L98.8638 6.6174L114.109 6.65066L114.77 6.32733C117.467 5.00766 117.184 1.11605 114.32 0.13992C114.006 0.0327302 109.974 -0.00404578 99.0073 0.000347258C84.6443 0.00599546 84.0995 0.014656 83.5053 0.246609ZM70.1744 13.6276C69.4908 13.8701 68.6742 14.5834 68.3479 15.223C68.203 15.5069 68.0567 16.0858 68.0227 16.5093C67.917 17.8257 68.4426 18.8973 69.5393 19.601C70.0831 19.95 70.3187 20.0191 71.1019 20.0586C72.2957 20.1188 72.9381 19.8779 73.6706 19.0946C74.4257 18.2873 74.6972 17.5421 74.6139 16.5045C74.437 14.3007 72.2581 12.8887 70.1744 13.6276ZM83.6143 13.6233C81.8429 14.2559 80.9242 16.3983 81.7007 18.0856C82.0617 18.8697 82.6406 19.4738 83.3693 19.8265C83.8773 20.0725 84.1552 20.0769 99.0029 20.0757L114.119 20.0744L114.754 19.779C117.209 18.6358 117.297 15.1783 114.904 13.8527L114.245 13.4874L99.1829 13.4649C86.3425 13.4457 84.0464 13.469 83.6143 13.6233ZM70.1744 27.0577C69.4952 27.2986 68.6787 28.009 68.3366 28.6568C67.9624 29.3651 67.9421 30.9575 68.2982 31.6749C69.532 34.1618 73.1049 34.1618 74.3387 31.6749C74.5181 31.3135 74.5819 30.9218 74.5819 30.1809C74.5819 29.3116 74.5355 29.098 74.2368 28.5899C73.3867 27.1437 71.7125 26.5122 70.1744 27.0577ZM83.6143 27.0535C81.8429 27.6861 80.9242 29.8285 81.7007 31.5158C82.0684 32.3144 82.6262 32.8883 83.418 33.2824L83.9955 33.5698H98.9946H113.994L114.657 33.27C117.254 32.0965 117.316 28.5601 114.764 27.195L114.245 26.9175L99.1829 26.8951C86.3425 26.8758 84.0464 26.8992 83.6143 27.0535ZM70.1842 40.4846C67.9702 41.2707 67.2612 44.2594 68.8904 45.9381C70.5331 47.631 73.2951 47.2086 74.3387 45.1051C74.5181 44.7436 74.5819 44.352 74.5819 43.6111C74.5819 42.7418 74.5355 42.5281 74.2368 42.0201C73.3961 40.5899 71.6988 39.9469 70.1842 40.4846ZM83.7811 40.4505C81.8728 41.0585 80.8974 43.1949 81.714 44.9786C82.0886 45.7964 82.6327 46.3521 83.4307 46.7315L83.9955 47H98.9946H113.994L114.657 46.7001C117.262 45.5231 117.314 42.0064 114.747 40.619L114.245 40.3477L99.2457 40.325C88.0032 40.3079 84.13 40.3393 83.7811 40.4505Z" fill="#2B2C33"/>
<path fill-rule="evenodd" clip-rule="evenodd" d="M157.508 0.075578C157.208 0.164881 156.241 1.05757 153.682 3.60893C151.799 5.48661 150.177 7.17693 150.078 7.36543C149.845 7.80907 149.848 8.77162 150.083 9.22711C150.331 9.70734 150.878 10.1527 151.399 10.2976C151.928 10.445 151.952 10.4449 152.514 10.29C152.872 10.1915 153.309 9.83094 154.495 8.6563L156.016 7.14885V17.936C156.016 27.3831 156.038 28.7758 156.192 29.1468C156.43 29.7174 156.675 29.974 157.221 30.2255C158.139 30.648 159.14 30.3864 159.769 29.5601L160.091 29.1365L160.149 18.1064L160.206 7.07623L161.411 8.29483C162.944 9.84383 163.377 10.1893 163.949 10.3182C165.561 10.6812 166.936 9.01455 166.295 7.47603C166.091 6.98681 159.959 0.74754 159.288 0.346596C158.736 0.0167713 158.054 -0.0869174 157.508 0.075578ZM143.58 16.2926C141.669 16.5172 139.959 17.3067 138.735 18.5303C137.797 19.4682 137.358 20.2296 137.128 21.3183C136.887 22.4584 136.884 40.7121 137.124 41.8501C137.543 43.8305 139.063 45.4518 141.352 46.3608C143.04 47.031 142.817 47.0228 158.552 46.987L172.949 46.9542L173.861 46.6953C176.279 46.0087 178.123 44.5221 178.89 42.6406L179.148 42.0077L179.183 31.9956C179.209 24.7111 179.182 21.8074 179.085 21.3372C178.618 19.0785 176.597 17.247 173.753 16.5058C172.762 16.2478 172.545 16.2364 168.529 16.2329L164.339 16.2294V18.3008V20.3723L168.587 20.4299L172.834 20.4874L173.583 20.8422C174.339 21.2009 174.907 21.7353 175.019 22.1937C175.052 22.3312 175.065 26.6745 175.048 31.8454L175.015 41.2469L174.629 41.6462C174.143 42.1488 173.169 42.5914 172.203 42.748C171.193 42.9118 145.001 42.9152 143.962 42.7517C143.051 42.6084 141.897 42.0651 141.501 41.5924L141.206 41.242V31.5661V21.8902L141.659 21.4585C141.908 21.2209 142.412 20.9055 142.779 20.7574C143.424 20.4968 143.578 20.4865 147.635 20.4303L151.826 20.3723V18.3008V16.2294L148.095 16.215C146.042 16.207 144.011 16.2419 143.58 16.2926Z" fill="#2B2C33"/>
</svg>
