<svg width="215" height="47" viewBox="0 0 215 47" fill="none" xmlns="http://www.w3.org/2000/svg">
<path fill-rule="evenodd" clip-rule="evenodd" d="M23.7645 0.183988C16.3388 1.39852 10.0535 5.7614 6.55947 12.127C5.72469 13.6478 5.67908 14.2304 6.33709 14.9668C6.72125 15.3969 6.93108 15.4953 7.46447 15.4953C8.31244 15.4953 8.57897 15.2408 9.61919 13.4383C11.6503 9.91918 14.3885 7.29933 17.9202 5.4965C27.9961 0.352769 40.2939 4.40236 45.3391 14.5251C46.5334 16.9215 47.4084 20.2164 47.4084 22.3169V23.1421L46.879 22.6315C46.1204 21.8998 45.5652 21.7237 44.8968 22.0031C43.7235 22.4933 43.4802 23.6525 44.3442 24.6365C45.1876 25.5972 48.1181 28.4736 48.4159 28.6331C48.8186 28.849 49.4814 28.8127 49.9825 28.5473C50.5063 28.2698 53.9741 24.7803 54.2331 24.2701C54.7858 23.1815 54.0202 21.9378 52.7977 21.9378C52.2679 21.9378 52.0066 22.053 51.5022 22.5085L50.8706 23.0792L50.7687 22.5696C50.7127 22.2894 50.6668 21.784 50.6668 21.4466C50.6668 20.5131 50.2202 18.295 49.667 16.4801C48.6261 13.0661 46.7257 9.86215 44.1936 7.2529C40.7271 3.68032 36.7117 1.43844 31.9639 0.424615C29.8823 -0.0198193 25.7516 -0.141028 23.7645 0.183988ZM24.096 8.39819C18.1967 9.68539 13.6401 14.0949 12.1877 19.9214C11.7299 21.7583 11.6938 24.9776 12.1105 26.8013C13.3726 32.3251 17.4237 36.6486 22.9242 38.3423C24.2487 38.75 24.5693 38.7831 27.2069 38.7831C29.8452 38.7831 30.165 38.75 31.4911 38.3418C36.8742 36.6844 40.8941 32.4564 42.2181 27.0599C42.6759 25.1933 42.7135 21.9503 42.2971 20.2272C41.1523 15.4906 38.2506 11.8145 34.0042 9.72123C31.7296 8.59988 30.235 8.23381 27.6142 8.15578C25.9665 8.10658 25.1855 8.1605 24.096 8.39819ZM28.151 12.7585C28.591 13.0362 28.8361 13.6045 28.8361 14.3471C28.8361 14.8216 28.9038 14.9019 29.447 15.0706C30.9263 15.5297 32.5831 17.3307 32.5831 18.4796C32.5831 19.3007 31.8433 19.9828 30.9525 19.9828C30.3448 19.9828 30.1861 19.8912 29.4288 19.1029C28.4042 18.0366 27.6225 17.7556 26.4813 18.043C25.1436 18.3797 24.3696 19.7575 24.9298 20.8044C25.1747 21.2617 25.5349 21.4099 27.7093 21.9477C30.0636 22.53 31.0465 22.9984 31.8262 23.9092C32.6442 24.8647 32.967 25.9364 32.8739 27.3867C32.7465 29.3711 31.6211 30.9503 29.7109 31.8248C28.8739 32.208 28.8361 32.2525 28.8361 32.8526C28.8361 34.1416 27.4687 35.0108 26.4177 34.3899C25.8453 34.0517 25.5778 33.5377 25.5778 32.7759C25.5778 32.2686 25.5092 32.194 24.7029 31.8248C23.2005 31.137 21.8307 29.614 21.8307 28.6315C21.8307 27.7922 22.6202 26.9882 23.444 26.9882C24.0051 26.9882 24.5954 27.349 24.9362 27.9007C25.3192 28.5202 26.4228 29.1061 27.2069 29.1061C29.0821 29.1061 30.3364 27.16 29.1961 26.0198C28.834 25.6578 28.3617 25.4765 26.8746 25.1285C24.6602 24.6104 23.575 24.1458 22.8232 23.3939C21.4068 21.9777 21.065 19.6118 22.0047 17.7311C22.5801 16.5797 23.499 15.71 24.7224 15.1589C25.536 14.7925 25.5778 14.7434 25.5778 14.1561C25.5778 13.4065 25.9368 12.8554 26.6168 12.5612C27.1577 12.3272 27.5468 12.3772 28.151 12.7585ZM2.32774 20.5185C0.31345 22.5329 0 22.9156 0 23.3618C0 24.1357 0.307096 24.6612 0.932366 24.9581C1.64675 25.2971 2.12132 25.1764 2.92287 24.4522L3.55677 23.8796L3.66332 24.9858C4.25861 31.1642 6.49577 36.1041 10.5074 40.0993C13.8653 43.4433 17.8189 45.5961 22.4824 46.6198C24.1283 46.9812 28.5754 47.125 30.3292 46.8737C34.406 46.2893 38.379 44.6391 41.5788 42.2014C43.9181 40.4193 46.4339 37.4676 47.8799 34.8081C48.8406 33.0411 48.7207 32.135 47.456 31.6067C46.9511 31.3957 46.8352 31.4016 46.3034 31.6645C45.8516 31.888 45.5297 32.2766 44.9391 33.3111C43.8263 35.2605 42.7189 36.6913 41.1812 38.1663C31.4958 47.4564 15.5213 44.8157 9.24123 32.8864C8.00144 30.5314 7.01352 27.0361 7.00798 24.9848L7.00537 24.0404L7.61859 24.5332C8.4431 25.1958 9.06381 25.2965 9.73747 24.8769C10.4027 24.4628 10.6607 23.9161 10.5271 23.204C10.4465 22.7739 9.9302 22.1641 8.17201 20.4219C5.13657 17.4141 5.43715 17.4092 2.32774 20.5185Z" fill="#2B2C33"/>
<path fill-rule="evenodd" clip-rule="evenodd" d="M95.5689 0.438908L95.1483 0.858217V2.99421V5.13021L95.5575 5.52097C96.4485 6.37221 97.7172 6.03926 98.0326 4.87142C98.1297 4.51179 98.1771 3.55697 98.1475 2.55769L98.0972 0.856352L97.6276 0.438047C96.9717 -0.146374 96.1554 -0.145944 95.5689 0.438908ZM80.6891 6.53431C80.275 6.94716 80.1188 7.47822 80.2536 8.01373C80.3879 8.5478 82.8737 11.0363 83.4232 11.1869C84.08 11.3669 84.758 11.1245 85.0826 10.5937C85.6583 9.65223 85.4404 9.16607 83.6707 7.44322C82.4219 6.22761 82.3601 6.18802 81.7088 6.18802C81.1897 6.18802 80.9571 6.26706 80.6891 6.53431ZM110.776 6.35284C110.133 6.72539 107.977 9.04701 107.885 9.46689C107.641 10.5771 108.835 11.5936 109.867 11.1533C110.119 11.0454 110.925 10.3448 111.657 9.59614C112.909 8.31584 112.988 8.19907 112.988 7.63085C112.988 6.80314 112.391 6.18615 111.596 6.19232C111.293 6.19476 110.924 6.26692 110.776 6.35284ZM95.7957 9.00985C90.6026 9.38728 86.1101 12.5679 84.1154 17.2791C82.0943 22.0525 83.0935 27.6911 86.6257 31.4445C87.2 32.0549 87.9931 32.8 88.3881 33.1003L89.106 33.6462V36.5553V39.4642L89.5258 39.9327L89.9456 40.4012H96.5657H103.186L103.627 39.9799L104.068 39.5586V36.6432C104.068 34.0402 104.095 33.7061 104.32 33.5239C107.367 31.0548 108.801 29.0236 109.714 25.8823C109.99 24.9298 110.038 24.4265 110.038 22.4698C110.038 20.5048 109.991 20.0116 109.709 19.042C108.404 14.5467 105.143 11.1035 100.814 9.64936C99.4781 9.2005 97.1878 8.90872 95.7957 9.00985ZM97.6372 15.4893C98.1449 15.9954 98.2025 16.7852 97.7736 17.3597C97.4685 17.7684 97.2742 17.8435 95.8736 18.0948C94.7708 18.2928 94.3205 18.5075 93.5461 19.2052C92.7968 19.8802 92.304 20.867 92.1402 22.0198C91.9912 23.069 91.8291 23.4361 91.3747 23.7535C90.7289 24.2045 89.5108 23.8714 89.2436 23.1708C88.683 21.7003 89.642 18.9007 91.2668 17.2655C92.7133 15.8097 95.086 14.8321 96.7237 15.0172C97.0259 15.0513 97.3833 15.2361 97.6372 15.4893ZM74.919 21.0987C74.428 21.3052 74 21.9595 74 22.5035C74 22.8775 74.1211 23.1213 74.4891 23.4883L74.9783 23.976H76.9421C79.5233 23.976 80.0424 23.7258 80.0424 22.4815C80.0424 22.1216 79.9192 21.8347 79.623 21.5038L79.2035 21.0353L77.2133 21.0031C76.1186 20.9853 75.0862 21.0284 74.919 21.0987ZM113.883 21.2451C113 21.7931 112.887 22.757 113.621 23.4883L114.11 23.976H116.074C118.655 23.976 119.174 23.7258 119.174 22.4815C119.174 22.1216 119.051 21.8347 118.755 21.5038L118.335 21.0353L116.345 20.9941C114.55 20.9568 114.308 20.9815 113.883 21.2451ZM83.0277 33.9927C82.8102 34.1357 82.082 34.8191 81.4093 35.5112C80.2439 36.7104 80.1862 36.8002 80.1862 37.413C80.1862 38.3074 80.7613 38.895 81.6366 38.895C82.2165 38.895 82.3182 38.8238 83.7432 37.42C85.0682 36.1146 85.2499 35.8758 85.3214 35.344C85.3948 34.7979 85.3558 34.6966 84.8947 34.2368C84.308 33.6518 83.6726 33.5688 83.0277 33.9927ZM108.486 34.0199C108.283 34.1789 108.044 34.5285 107.956 34.7966C107.711 35.5356 108.014 36.0558 109.57 37.5681C110.778 38.7422 110.994 38.895 111.451 38.895C112.185 38.895 112.652 38.6404 112.909 38.1003C113.173 37.5451 113.187 37.2636 112.972 36.8413C112.742 36.3903 110.541 34.1779 110.082 33.9356C109.536 33.6481 108.918 33.6808 108.486 34.0199ZM92.0361 43.6171C91.788 43.7679 91.4806 44.0402 91.3527 44.2223C90.8534 44.933 91.2163 46.3593 92.0115 46.8115C92.2647 46.9555 93.347 47 96.5933 47C100.412 47 100.883 46.9743 101.231 46.7469C101.797 46.3774 102.093 45.8477 102.093 45.2069C102.093 44.5358 101.776 44.0052 101.147 43.6226C100.72 43.3628 100.398 43.343 96.587 43.343C92.804 43.343 92.452 43.3642 92.0361 43.6171Z" fill="#2B2C33"/>
<path fill-rule="evenodd" clip-rule="evenodd" d="M170.864 0.22197C169.563 0.393629 166.216 1.26543 164.226 1.95091C161.335 2.94709 157.432 4.96298 154.953 6.7413L152.783 8.29741L160.198 15.7125L167.613 23.1277L169.257 22.3178C170.162 21.8722 171.391 21.3768 171.989 21.2168L173.077 20.9259V10.4931V0.0600932L172.32 0.0950309C171.904 0.11413 171.249 0.171427 170.864 0.22197ZM180.53 10.4654V20.9308L182.103 21.4383C184.516 22.2172 186.507 23.4985 188.689 25.6772C191.624 28.6084 193.119 31.7127 193.516 35.7012L193.69 37.4432L204.032 37.5039L214.374 37.5645L214.226 34.709C213.88 28.0585 211.382 21.1651 207.184 15.2826C205.579 13.0338 201.971 9.37348 199.517 7.5041C194.528 3.70523 187.552 0.794244 181.903 0.155355L180.53 0V10.4654ZM145.985 15.7086C142.037 21.2098 139.531 28.2809 139.146 35.0048L139 37.5596H149.368H159.737L159.9 35.7545C160.081 33.7414 160.921 30.9839 161.823 29.4355L162.418 28.4153L154.98 20.9771L147.542 13.539L145.985 15.7086ZM173.889 28.4291C171.107 29.391 169.337 30.9639 168.101 33.5714C167.427 34.9959 167.371 35.3013 167.371 37.5596C167.371 39.8725 167.413 40.0903 168.156 41.5709C170.07 45.3833 174.282 47.5869 178.273 46.8632C185.662 45.5233 188.743 36.7658 183.785 31.191C182.562 29.8154 181.473 29.1073 179.624 28.4845C177.88 27.8969 175.495 27.8738 173.889 28.4291ZM180.863 34.4318C181.064 34.6333 181.229 34.9894 181.229 35.2235C181.229 35.8025 175.995 41.0534 175.418 41.0534C175.17 41.0534 174.227 40.4152 173.323 39.6351C172.04 38.5278 171.68 38.0785 171.68 37.5855C171.68 36.1814 172.876 36.0084 174.332 37.2016L175.317 38.0084L177.278 36.037C179.339 33.9657 180.07 33.6385 180.863 34.4318Z" fill="#2B2C33"/>
</svg>
