<svg width="1440" height="331" viewBox="0 0 1440 331" fill="none" xmlns="http://www.w3.org/2000/svg">
<path fill-rule="evenodd" clip-rule="evenodd" d="M0 272.942L61.3333 261.898C122.667 249.276 245.333 227.188 368 249.276C490.667 272.942 613.333 340.783 736 329.739C858.667 318.695 981.333 227.188 1104 216.145C1226.67 205.101 1349.33 272.942 1472 283.986C1594.67 295.029 1717.33 249.276 1778.67 227.188L1840 205.101V0H1778.67C1717.33 0 1594.67 0 1472 0C1349.33 0 1226.67 0 1104 0C981.333 0 858.667 0 736 0C613.333 0 490.667 0 368 0C245.333 0 122.667 0 61.3333 0H0V272.942Z" fill="#23252A"/>
</svg>
